<svg xmlns="http://www.w3.org/2000/svg" viewBox="0 0 36.07 36.06"><defs><style>.cls-1{fill:#3dae2b;}.cls-2{fill:#fff;}</style></defs><g id="Vrstva_2" data-name="Vrstva 2"><g id="Vrstva_2-2" data-name="Vrstva 2"><g id="FB"><path class="cls-1" d="M26.94,36.06H20.82L18,35.14l-2.76.92H9.13A9.12,9.12,0,0,1,0,26.94V9.13A9.13,9.13,0,0,1,9.13,0H26.94a9.13,9.13,0,0,1,9.13,9.13V26.94a9.12,9.12,0,0,1-9.13,9.12"/><path class="cls-2" d="M15.25,14.11V18H10.73v5.15h4.52V36.06h5.57V23.18H25L25.76,18H20.82V14.69a2.57,2.57,0,0,1,2.9-2.78H26V7.53a27.27,27.27,0,0,0-4-.35c-4.07,0-6.73,2.46-6.73,6.93"/></g></g></g></svg>