<svg xmlns="http://www.w3.org/2000/svg" viewBox="0 0 36.07 36.06"><defs><style>.cls-1{fill:#3dae2b;}.cls-2{fill:#fff;}</style></defs><g id="Vrstva_2" data-name="Vrstva 2"><g id="Vrstva_2-2" data-name="Vrstva 2"><g id="Insta"><path class="cls-1" d="M26.94,36.06H9.13A9.12,9.12,0,0,1,0,26.94V9.13A9.13,9.13,0,0,1,9.13,0H26.94a9.13,9.13,0,0,1,9.13,9.13V26.94a9.12,9.12,0,0,1-9.13,9.12"/><path class="cls-2" d="M23.56,11.36a1.22,1.22,0,1,0,1.23,1.22,1.22,1.22,0,0,0-1.23-1.22"/><path class="cls-2" d="M18.12,12.93a5.14,5.14,0,1,0,5.14,5.14,5.15,5.15,0,0,0-5.14-5.14m0,8.43a3.3,3.3,0,1,1,3.29-3.29,3.29,3.29,0,0,1-3.29,3.29"/><path class="cls-2" d="M22.2,28.51H13.86a6.27,6.27,0,0,1-6.27-6.27V13.9a6.27,6.27,0,0,1,6.27-6.27H22.2a6.28,6.28,0,0,1,6.28,6.27v8.34a6.28,6.28,0,0,1-6.28,6.27M13.86,9.59A4.32,4.32,0,0,0,9.55,13.9v8.34a4.32,4.32,0,0,0,4.31,4.31H22.2a4.32,4.32,0,0,0,4.31-4.31V13.9A4.31,4.31,0,0,0,22.2,9.59Z"/></g></g></g></svg>