<svg id="Vrstva_1" data-name="Vrstva 1" xmlns="http://www.w3.org/2000/svg" viewBox="0 0 123.02 140.49"><defs><style>.cls-1{fill:#3dae2b;}</style></defs><path class="cls-1" d="M885.36,206.16c11.06.2,22,1.67,32.33,6.4a31,31,0,0,1,9.64,6.54,13.15,13.15,0,0,1,4.12,10c-.11,2.33-.12,4.67,0,7,.21,4.23-1.53,7.58-4.45,10.42-4.58,4.47-10.26,7-16.26,8.88a88.44,88.44,0,0,1-33.93,3.31,72.7,72.7,0,0,1-22.56-5.22c-4.67-2-9-4.46-12.34-8.41a12.74,12.74,0,0,1-3.17-8.64c0-2.38.08-4.76,0-7.14a13.61,13.61,0,0,1,4.78-10.83c4.77-4.47,10.6-7,16.74-8.85A88.8,88.8,0,0,1,885.36,206.16Zm-.29,4.41c-.9,0-1.8,0-2.69,0a74.18,74.18,0,0,0-21.92,3.68,32.17,32.17,0,0,0-11.92,6.58c-4.84,4.52-4.83,10.12,0,14.62a31.49,31.49,0,0,0,11.54,6.45,74.73,74.73,0,0,0,24.19,3.85c9.3.07,18.42-1,27.19-4.34,4.1-1.55,8-3.52,11-6.79,3.87-4.15,3.77-9.09-.19-13.17a26.09,26.09,0,0,0-8.47-5.61C904.65,211.83,895,210.66,885.07,210.57Z" transform="translate(-820.75 -206.16)"/><path class="cls-1" d="M843.12,306.78c.94,1.61,1.8,3.07,2.62,4.56a1.46,1.46,0,0,1,.19,1.06c-1.52,3.94-.3,7.2,2.49,10.05,3.62,3.7,8.2,5.76,13,7.29a81,81,0,0,0,32.72,3.09c7.23-.7,14.28-2.14,20.86-5.33a63.43,63.43,0,0,0,6.15-3.82,6.66,6.66,0,0,1,.76-.55l9.76-4.35c1.58,7-.88,13.2-7.18,17.71a50,50,0,0,1-19.11,7.95c-15.79,3.36-31.46,3-46.9-2a38.38,38.38,0,0,1-14.08-7.65c-3.49-3.11-5.59-6.81-5.28-11.68.2-3.26,0-6.56.33-9.8C839.73,310.74,841.35,308.67,843.12,306.78Z" transform="translate(-820.75 -206.16)"/><path class="cls-1" d="M935.64,285.06a11.58,11.58,0,0,1,3,7.22c0,3.32.07,6.65,0,10-.1,4.24-2.48,7.3-5.49,9.93a39.84,39.84,0,0,1-15.81,8.07,89.12,89.12,0,0,1-51.31-.43,38.53,38.53,0,0,1-15.23-8.32,14.2,14.2,0,0,1-4.68-13.11c.71.41,1.34.8,2,1.16a64.43,64.43,0,0,0,16.55,6.25c3.87.95,7.65,2.31,11.55,3,14.4,2.7,28.65,2.16,42.56-2.8a28.13,28.13,0,0,0,10.15-6c2.28-2.17,3.93-4.67,3.59-8a1.43,1.43,0,0,1,.13-.77C933.59,289.2,934.62,287.13,935.64,285.06Z" transform="translate(-820.75 -206.16)"/><path class="cls-1" d="M912.39,259.39A17.68,17.68,0,0,1,907,266a42.25,42.25,0,0,1-15.15,7.38,89.06,89.06,0,0,1-51.71-.72,38.87,38.87,0,0,1-13.48-7.12c-2.7-2.27-4.89-4.91-5.61-8.47a17.16,17.16,0,0,1-.22-3.21c0-2.38.08-4.76,0-7.14a12.77,12.77,0,0,1,3.8-9.59c3-3.28,6.84-5.44,11.1-7.39,0,1.73.05,3.27,0,4.8,0,.31-.53.65-.89.87a19.47,19.47,0,0,0-6.13,5.36c-2.69,3.95-2.21,8.21,1.37,11.82,3.91,3.95,8.84,6.08,14,7.64a82.6,82.6,0,0,0,30.89,2.89,81.86,81.86,0,0,1,8.86,0,90.29,90.29,0,0,0,26.87-3.26Z" transform="translate(-820.75 -206.16)"/><path class="cls-1" d="M838.84,276.83c2.95.75,5.73,1.45,8.49,2.17a2,2,0,0,1,.8.47c4.29,4.24,9.68,6.41,15.34,8a84.51,84.51,0,0,0,31.47,2.31c3.21-.32,6.46-.15,9.68-.37a75.74,75.74,0,0,0,25.78-6c.24-.1.5-.18,1.15-.41a36.74,36.74,0,0,1-1.25,3.59c-1.72,3.62-4.65,6.12-7.95,8.21a54.38,54.38,0,0,1-19.29,7.17c-15,2.83-29.9,2.37-44.53-2.3a41.51,41.51,0,0,1-12.91-6.5c-4.49-3.45-7.35-7.71-6.8-13.68C838.9,278.59,838.84,277.74,838.84,276.83Z" transform="translate(-820.75 -206.16)"/><path class="cls-1" d="M932.33,245.8l2-4.45c4.34,2.9,8.45,6.06,9.11,11.56a62.36,62.36,0,0,1,0,12.22c-.31,3.77-2.72,6.57-5.53,8.94-5.11,4.32-11.16,6.82-17.55,8.45a89.5,89.5,0,0,1-49.11-.89c-.67-.2-1.31-.45-1.87-.63,4.9-.62,9.86-1.07,14.76-1.88a64.93,64.93,0,0,0,20.14-6.86c1.38-.74,3.2-.68,4.83-.92,7.05-1,13.94-2.62,20.16-6.24a25.25,25.25,0,0,0,5.12-3.89c4.09-4.06,4.13-8.88.26-13.15C934,247.27,933.15,246.57,932.33,245.8Z" transform="translate(-820.75 -206.16)"/><path class="cls-1" d="M887.24,237.67V240h-4.08l-.1-2.22c-4.48-.77-9.26-.83-11.84-5.94,2.53-.14,4.78-.28,7-.36.26,0,.59.31.79.56a6.71,6.71,0,0,0,4.05,2.28c0-1.69,0-3.28,0-4.87,0-.25-.54-.58-.89-.68-2-.57-4.08-1-6.08-1.65a6.82,6.82,0,0,1-2.08-1.21,3.49,3.49,0,0,1,.09-5.9,14,14,0,0,1,6.8-2.31c.66-.09,1.33-.14,2.07-.21l.25-1.21h3.88c0,1.17.78,1.24,1.71,1.42a42.75,42.75,0,0,1,5.83,1.43,4.92,4.92,0,0,1,3.1,3.09c-2.36.13-4.57.27-6.78.35-.27,0-.54-.4-.83-.58-.84-.52-1.69-1-2.88-1.74,0,1.92,0,3.38,0,4.84,0,.25.55.59.89.67,2.1.48,4.22.85,6.3,1.37a8.22,8.22,0,0,1,2.44,1.09c2.6,1.68,2.71,4.52.24,6.46-2.22,1.76-4.91,2.31-7.64,2.69C888.82,237.48,888.11,237.56,887.24,237.67Zm.08-2.83a28,28,0,0,0,3.92-1.66,1.34,1.34,0,0,0,.07-2.36,6.89,6.89,0,0,0-4-1.25ZM883,225.13v-4.75a19.7,19.7,0,0,0-2.69,1.2,1.28,1.28,0,0,0,0,2.36A21,21,0,0,0,883,225.13Z" transform="translate(-820.75 -206.16)"/></svg>