<svg id="Vrstva_1" data-name="Vrstva 1" xmlns="http://www.w3.org/2000/svg" viewBox="0 0 140.53 140.49"><defs><style>.cls-1{fill:#3dae2b;}</style></defs><path class="cls-1" d="M876.25,240.54,866.13,250.8c-6.14-2-12.2-4.67-18.53-6-28.32-5.8-56.87,13.47-62.52,41.87-5.84,29.32,12.72,57.85,41.46,63.71A53.84,53.84,0,0,0,883.05,327c12.15-18.58,11.55-42.31-1.45-60.86-.74-1-1.63-2.83-1.21-3.67,1-2.1,2-4.72,5.45-4.09,1.84.33,3.8,0,5.7,0a8.3,8.3,0,0,1,7.23,12.27c-.87,1.69-2,3.25-2.9,4.92-2.74,4.88-1.54,9.32,3.26,12.16,1.46.86,3,1.62,4.42,2.5,6.14,3.7,6.08,11.19-.11,14.89-1.54.92-3.17,1.7-4.7,2.64-4.26,2.61-5.47,7.07-3.11,11.5,1,1.77,2.12,3.42,3.06,5.19A8.3,8.3,0,0,1,891.41,337c-2.11.07-4.23-.08-6.34,0a8.07,8.07,0,0,0-8,7.88c-.09,2.11.06,4.23,0,6.34-.19,6.73-6.75,10.47-12.67,7.23-1.77-1-3.42-2.12-5.2-3.05A8.16,8.16,0,0,0,848,358.53c-1.11,1.8-2,3.74-3.15,5.5a8.22,8.22,0,0,1-14,0c-1.1-1.67-2-3.5-3-5.22-2.66-4.46-7.11-5.69-11.7-3.22-1.68.9-3.24,2-4.91,2.91a8.33,8.33,0,0,1-12.63-7.31c-.05-1.8,0-3.6,0-5.39-.07-5.54-3.37-8.77-9-8.81-1.8,0-3.6.08-5.4,0a8.31,8.31,0,0,1-7.2-12.49c1-1.86,2.23-3.6,3.19-5.47a8.15,8.15,0,0,0-3-11.05c-1.79-1.12-3.73-2-5.51-3.14a8.23,8.23,0,0,1,0-14.2c1.69-1.09,3.51-1.95,5.23-3,4.31-2.63,5.55-7,3.21-11.47-.94-1.77-2.11-3.42-3.06-5.19a8.31,8.31,0,0,1,7.17-12.51c2-.07,4,.06,6,0,4.95-.12,8.25-3.45,8.36-8.46,0-2-.1-4,0-6a8.3,8.3,0,0,1,12.32-7.16c1.69.87,3.26,2,4.92,2.9,4.88,2.7,9.37,1.47,12.16-3.32,1-1.64,1.79-3.37,2.83-5a8.22,8.22,0,0,1,14-.07c1.16,1.76,2,3.7,3.15,5.5a8.15,8.15,0,0,0,11.24,3.18c1.6-.82,3.11-1.81,4.66-2.71C869,234.36,873.48,235.6,876.25,240.54Z" transform="translate(-767.59 -227.46)"/><path class="cls-1" d="M837.26,336.69c-7.37-19.75-17.76-36.54-33.93-50.08,4.74-2.29,9.44-2.82,13.74-.56a56.29,56.29,0,0,1,11.21,8.12c3.18,2.86,5.77,6.38,8.66,9.64,4.21-7.54,8.22-15.1,12.56-22.46,7.43-12.6,15.43-24.83,26.28-34.82a53.07,53.07,0,0,1,10.06-7.06c2-1.11,4.54-1.14,7.11-1.21A415.21,415.21,0,0,0,837.26,336.69Z" transform="translate(-767.59 -227.46)"/><path class="cls-1" d="M864.5,253.85a11.31,11.31,0,0,1-3.07-.61c-13.14-6.63-26.68-7.71-40.58-2.83a50.3,50.3,0,0,0-33.08,52.26c2.24,22.74,19.79,41.53,42.38,44.61,21.45,2.93,38.76-4.75,50.2-23.07s10.44-37.09-1.24-55.28a7,7,0,0,1-.93-3.55c12.38,12.08,19.3,41.34,1.09,64.65a52.54,52.54,0,0,1-83.92-63.22c17.6-24.09,49.17-27,69.23-14.11Z" transform="translate(-767.59 -227.46)"/></svg>