<svg id="Vrstva_1" data-name="Vrstva 1" xmlns="http://www.w3.org/2000/svg" viewBox="0 0 222.06 140.68"><defs><style>.cls-1{fill:#3dae2b;}</style></defs><path class="cls-1" d="M620.66,435.47l118.26-3.25c0-.23,0-.37-.09-.41-4-2.77-8.05-5.55-12.12-8.26a4,4,0,0,0-2-.5q-36-.84-71.94-1.62c-3.67-.08-7.35,0-11,0V421L722,419.21c-.84-.91-1.5-1.53-2-2.24-2.37-3.06-4.78-6.09-7-9.24a2.91,2.91,0,0,0-2.58-1.44c-15.05-.42-30.1-.92-45.15-1.34-3.72-.11-7.45,0-11.17,0v-.6l55.72-1.77c-.23-.52-.41-.91-.57-1.31-1.41-3.5-2.88-7-4.19-10.51a1.78,1.78,0,0,0-1.91-1.43q-27.85-.84-55.7-1.78a6.15,6.15,0,0,1-1.53-.18l57.48-1.85-1.7-12.59-60.13-2.54v-.14l60.08-2.53c.48-4.1.94-8.12,1.42-12.29l-35.78-1.78v-.22l14-.7c7.14-.35,14.28-.66,21.41-1.06a2.14,2.14,0,0,0,1.61-.9c1.57-4.14,3-8.32,4.58-12.66l-35.26-1.75v-.17l10.52-.56c8.56-.42,17.12-.86,25.69-1.23a2.68,2.68,0,0,0,2.29-1.36c2.61-3.64,5.35-7.2,8.05-10.78.3-.4.65-.76,1.2-1.39l-32.41-1.63v-.15l19.53-1c5.1-.25,10.2-.47,15.29-.75a3.46,3.46,0,0,0,1.95-.63A73.26,73.26,0,0,1,744.22,305a7.92,7.92,0,0,0,.74-.51l-56.38-2.06v-.18l28-1c17.85-.65,35.7-1.68,53.56-1.84,29.39-.27,51.6,12.74,64.93,38.85,21,41.13-3.12,90.64-48.23,100.36a77.75,77.75,0,0,1-22.23,1.17c-7.47-.55-15-.59-22.48-.8q-48.58-1.38-97.18-2.71l-24.28-.67ZM772.09,431c33.68,0,61.31-27.42,61.35-60.9a61.23,61.23,0,0,0-61.5-61.63c-33.55,0-61,27.49-61.05,61.16A61.35,61.35,0,0,0,772.09,431Z" transform="translate(-620.66 -299.39)"/><path class="cls-1" d="M812.45,336.79l-11.71,7.47c-.83-.9-1.56-1.74-2.34-2.54-16.11-16.37-42.3-15.8-58,1.25-16.11,17.44-14.6,44.81,3.37,61.11a3.36,3.36,0,0,1,1,1.29c-.43-.3-.88-.59-1.3-.91-21.84-16.65-24.38-48.67-5.35-69a51.65,51.65,0,0,1,9-7.6,49.28,49.28,0,0,1,57.52,2.33C807.16,332.23,809.68,334.47,812.45,336.79Z" transform="translate(-620.66 -299.39)"/><path class="cls-1" d="M816.46,341l-9.17,7c-7.93,6-15.84,12-23.81,18a2.65,2.65,0,0,0-1.24,2.75,10.14,10.14,0,0,1-20,3.31,10.14,10.14,0,0,1,15-11,2.37,2.37,0,0,0,2.74,0q17.55-9.82,35.13-19.56l1.17-.61Zm-40,28.7a4.33,4.33,0,0,0-8.66,0,4.33,4.33,0,1,0,8.66,0Z" transform="translate(-620.66 -299.39)"/></svg>