<svg xmlns="http://www.w3.org/2000/svg" xmlns:xlink="http://www.w3.org/1999/xlink" viewBox="0 0 1927.23 519.33"><defs><style>.cls-1{fill:none;}.cls-2{opacity:0.34;}.cls-3{fill:#010101;}.cls-4{clip-path:url(#clip-path);}.cls-5{fill:url(#Nepojmenovaný_přechod_8);}.cls-6{clip-path:url(#clip-path-2);}.cls-7{opacity:0.25;}.cls-8{clip-path:url(#clip-path-3);}.cls-9{fill:#e7e6e6;}.cls-10{opacity:0.4;}.cls-11{clip-path:url(#clip-path-4);}.cls-12{clip-path:url(#clip-path-5);}.cls-13{clip-path:url(#clip-path-6);}.cls-14{clip-path:url(#clip-path-7);}</style><clipPath id="clip-path"><path class="cls-1" d="M128.54,7.93A120.83,120.83,0,0,0,7.71,128.76V519.33H1925.14V128.76A120.83,120.83,0,0,0,1804.31,7.93Z"/></clipPath><linearGradient id="Nepojmenovaný_přechod_8" x1="5" y1="1624.33" x2="5.99" y2="1624.33" gradientTransform="matrix(2110.84, 7.47, 14.27, -2081.91, -33828.01, 3381922.1)" gradientUnits="userSpaceOnUse"><stop offset="0" stop-color="#4e4d4d"/><stop offset="1" stop-color="#343434"/></linearGradient><clipPath id="clip-path-2"><path class="cls-1" d="M127.73,8.53A120.83,120.83,0,0,0,6.9,129.36v64.53l1917.42-.11V129.36A120.82,120.82,0,0,0,1803.5,8.53Z"/></clipPath><clipPath id="clip-path-3"><rect class="cls-1" x="1.51" y="48.61" width="497.6" height="114.38"/></clipPath><clipPath id="clip-path-4"><rect class="cls-1" x="3.63" y="148.67" width="232.5" height="14.32"/></clipPath><clipPath id="clip-path-5"><rect class="cls-1" x="3.63" y="116.9" width="205.5" height="14.32"/></clipPath><clipPath id="clip-path-6"><rect class="cls-1" x="2.56" y="83.02" width="176.92" height="14.32"/></clipPath><clipPath id="clip-path-7"><rect class="cls-1" x="3.63" y="48.61" width="203.38" height="14.32"/></clipPath></defs><g id="Vrstva_2" data-name="Vrstva 2"><g id="Vrstva_1-2" data-name="Vrstva 1"><g id="Patička"><g id="Patička_obrys" data-name="Patička obrys" class="cls-2"><path class="cls-3" d="M1806.4.91H120.83A120.82,120.82,0,0,0,0,121.73v397.6H1927.23V121.73A120.82,120.82,0,0,0,1806.4.91"/></g><g class="cls-4"><rect class="cls-5" width="1927.23" height="519.33"/></g></g><g id="SUBGRAFIKA"><g class="cls-6"><g class="cls-7"><g class="cls-8"><path class="cls-9" d="M498.77,156.39h0L496,158a.68.68,0,0,1-1-.59v-3.16a.68.68,0,0,1,1-.59l2.75,1.59a.66.66,0,0,1,0,1.15"/><path class="cls-9" d="M493.11,152l-5-2.87-.52-.3a1,1,0,0,0-1.54.88V162a1,1,0,0,0,1.54.89l.44-.26.08,0,3.42-2,1.54-.9a1,1,0,0,0,.52-.89v-5.92a1,1,0,0,0-.52-.88m-1.54,5.91a.55.55,0,0,1-.27.47l-2.65,1.52a.33.33,0,0,1-.5-.29v-7.52a.33.33,0,0,1,.5-.3l2.65,1.53a.55.55,0,0,1,.27.47Z"/><g class="cls-10"><g class="cls-11"><path class="cls-9" d="M3.63,163H229a7.16,7.16,0,0,0,0-14.32H3.63Z"/></g></g><path class="cls-9" d="M419.73,124.63h0l-2.76,1.6a.68.68,0,0,1-1-.59v-3.16a.68.68,0,0,1,1-.59l2.76,1.59a.67.67,0,0,1,0,1.15"/><path class="cls-9" d="M414.07,120.21l-5-2.87-.52-.3a1,1,0,0,0-1.54.89V130.2a1,1,0,0,0,1.54.89l.44-.26.08,0h0l3.42-2,1.55-.89a1,1,0,0,0,.51-.89V121.1a1,1,0,0,0-.51-.89m-1.55,5.91a.53.53,0,0,1-.27.47l-2.64,1.53a.34.34,0,0,1-.51-.29V120.3a.34.34,0,0,1,.51-.29l2.64,1.53a.52.52,0,0,1,.27.47Z"/><g class="cls-10"><g class="cls-12"><path class="cls-9" d="M4.64,131.22H202a7.16,7.16,0,1,0,0-14.31H4.64a1,1,0,0,0-1,1v12.29a1,1,0,0,0,1,1"/></g></g><path class="cls-9" d="M353.88,90.75h0l-2.76,1.59a.68.68,0,0,1-1-.58V88.6a.68.68,0,0,1,1-.59l2.76,1.59a.67.67,0,0,1,0,1.15"/><path class="cls-9" d="M348.22,86.33l-5-2.87-.52-.3a1,1,0,0,0-1.54.89V96.32a1,1,0,0,0,1.54.88l.44-.25.08,0h0l3.42-2,1.55-.89a1,1,0,0,0,.51-.89V87.22a1,1,0,0,0-.51-.89m-1.55,5.91a.55.55,0,0,1-.27.47l-2.64,1.53a.34.34,0,0,1-.51-.3V86.42a.34.34,0,0,1,.51-.29l2.64,1.52a.55.55,0,0,1,.27.48Z"/><g class="cls-10"><g class="cls-13"><path class="cls-9" d="M2.56,97.34H172.32a7.16,7.16,0,0,0,0-14.32H2.56Z"/></g></g><path class="cls-9" d="M382.17,56.34h0l-2.75,1.59a.68.68,0,0,1-1-.59V54.18a.68.68,0,0,1,1-.59l2.75,1.6a.66.66,0,0,1,0,1.15"/><path class="cls-9" d="M376.5,51.92l-5-2.87-.52-.3a1,1,0,0,0-1.54.89V61.91a1,1,0,0,0,1.54.88l.44-.25.08,0h0l3.42-2,1.55-.9a1,1,0,0,0,.51-.88V52.81a1,1,0,0,0-.52-.89M375,57.83a.55.55,0,0,1-.27.47L372,59.83a.34.34,0,0,1-.5-.3V52a.33.33,0,0,1,.5-.29l2.65,1.52a.55.55,0,0,1,.27.47Z"/><g class="cls-10"><g class="cls-14"><path class="cls-9" d="M3.63,62.93H199.85a7.16,7.16,0,0,0,0-14.32H3.63Z"/></g></g><polygon class="cls-9" points="152.15 156.22 3.63 156.22 3.63 155.42 151.82 155.42 183.55 123.66 395.11 123.66 395.11 124.45 183.88 124.45 152.15 156.22"/><polygon class="cls-9" points="166.81 124.45 3.63 124.45 3.63 123.66 166.48 123.66 234.97 55.38 351.96 55.38 351.96 56.17 235.3 56.17 166.81 124.45"/><polygon class="cls-9" points="472.14 156.22 286.72 156.22 286.6 156.1 220.74 90.57 1.51 90.57 1.51 89.78 221.07 89.78 221.19 89.89 287.04 155.42 472.14 155.42 472.14 156.22"/><polygon class="cls-9" points="323.63 90.58 234.41 90.57 234.29 90.45 199.96 56.16 2.56 56.16 2.56 55.37 200.29 55.37 200.41 55.48 234.74 89.78 323.63 89.79 323.63 90.58"/><path class="cls-9" d="M473,158.08l1.44-1.44a1.15,1.15,0,0,0,0-1.63L473,153.57a1.15,1.15,0,0,0-1.63,0L469.89,155a1.15,1.15,0,0,0,0,1.63l1.44,1.44a1.15,1.15,0,0,0,1.63,0"/><path class="cls-9" d="M395.92,126.32l1.44-1.44a1.15,1.15,0,0,0,0-1.63l-1.44-1.44a1.15,1.15,0,0,0-1.63,0l-1.44,1.44a1.15,1.15,0,0,0,0,1.63l1.44,1.44a1.15,1.15,0,0,0,1.63,0"/><path class="cls-9" d="M324.45,92.44,325.89,91a1.15,1.15,0,0,0,0-1.63l-1.44-1.44a1.15,1.15,0,0,0-1.63,0l-1.44,1.44a1.15,1.15,0,0,0,0,1.63l1.44,1.44a1.15,1.15,0,0,0,1.63,0"/><path class="cls-9" d="M352.77,58.18l1.44-1.44a1.16,1.16,0,0,0,0-1.64l-1.44-1.44a1.15,1.15,0,0,0-1.63,0L349.7,55.1a1.16,1.16,0,0,0,0,1.64l1.44,1.44a1.15,1.15,0,0,0,1.63,0"/></g></g></g></g><rect class="cls-1" width="1927.23" height="519.33"/></g></g></svg>