<svg xmlns="http://www.w3.org/2000/svg" xmlns:xlink="http://www.w3.org/1999/xlink" width="1753.491" height="209.076" viewBox="0 0 1753.491 209.076">
  <defs>
    <linearGradient id="linear-gradient" x1="1.051" y1="-1.502" x2="0.08" y2="1.91" gradientUnits="objectBoundingBox">
      <stop offset="0.268" stop-color="#1a1a1a" stop-opacity="0.302"/>
      <stop offset="1"/>
    </linearGradient>
  </defs>
  <g id="Group_697" data-name="Group 697" transform="translate(619.965 -747.967)">
    <g id="SubG" transform="translate(-17.648 790.328)">
      <g id="Group_643" data-name="Group 643" transform="translate(1136.627 108.785)">
        <g id="Group_641" data-name="Group 641" transform="translate(9.953 5.316)">
          <path id="Path_375" data-name="Path 375" d="M1101.98,907.512h0l-3.08,1.735a.761.761,0,0,1-1.142-.641v-3.435a.762.762,0,0,1,1.142-.641l3.081,1.731A.713.713,0,0,1,1101.98,907.512Z" transform="translate(-1097.757 -904.43)" fill="#fff"/>
        </g>
        <g id="Group_642" data-name="Group 642">
          <path id="Path_376" data-name="Path 376" d="M1095.925,902.708l-5.553-3.118-.581-.326a1.144,1.144,0,0,0-1.716.964v13.339a1.145,1.145,0,0,0,1.716.964l.491-.277.089-.05h0l3.828-2.157,1.727-.972a1.109,1.109,0,0,0,.571-.963v-6.44A1.109,1.109,0,0,0,1095.925,902.708Zm-1.725,6.426a.586.586,0,0,1-.3.511l-2.956,1.661a.378.378,0,0,1-.568-.319v-8.18a.378.378,0,0,1,.568-.319l2.956,1.66a.587.587,0,0,1,.3.512Z" transform="translate(-1088.075 -899.113)" fill="#fff"/>
        </g>
      </g>
      <g id="Group_644" data-name="Group 644" transform="translate(-596.998 108.785)" opacity="0.4">
        <path id="Rectangle_68" data-name="Rectangle 68" d="M0,0H1449.4a4.856,4.856,0,0,1,4.856,4.856v5.856a4.856,4.856,0,0,1-4.856,4.856H0a0,0,0,0,1,0,0V0A0,0,0,0,1,0,0Z" transform="translate(0 0)" fill="#fff"/>
      </g>
      <g id="Group_647" data-name="Group 647" transform="translate(1048.281 74.25)">
        <g id="Group_645" data-name="Group 645" transform="translate(9.954 5.316)">
          <path id="Path_377" data-name="Path 377" d="M1016.037,872.977h0l-3.079,1.734a.761.761,0,0,1-1.142-.64v-3.436a.761.761,0,0,1,1.141-.641l3.081,1.731A.713.713,0,0,1,1016.037,872.977Z" transform="translate(-1011.814 -869.895)" fill="#fff"/>
        </g>
        <g id="Group_646" data-name="Group 646">
          <path id="Path_378" data-name="Path 378" d="M1009.982,868.173l-5.553-3.118-.582-.326a1.144,1.144,0,0,0-1.716.964v13.339a1.144,1.144,0,0,0,1.716.964l.491-.277.09-.049h0l3.828-2.157,1.726-.972a1.109,1.109,0,0,0,.571-.963v-6.44A1.108,1.108,0,0,0,1009.982,868.173Zm-1.725,6.426a.587.587,0,0,1-.3.511L1005,876.771a.378.378,0,0,1-.567-.319v-8.18a.378.378,0,0,1,.567-.319l2.956,1.661a.588.588,0,0,1,.3.511Z" transform="translate(-1002.131 -864.578)" fill="#fff"/>
        </g>
      </g>
      <g id="Group_648" data-name="Group 648" transform="translate(-596.998 74.25)" opacity="0.4">
        <path id="Rectangle_69" data-name="Rectangle 69" d="M.686,0H1419.229a4.856,4.856,0,0,1,4.856,4.856v5.856a4.856,4.856,0,0,1-4.856,4.856H.686A.686.686,0,0,1,0,14.882V.686A.686.686,0,0,1,.686,0Z" transform="translate(0 0)" fill="#fff"/>
      </g>
      <g id="Group_651" data-name="Group 651" transform="translate(974.688 37.413)">
        <g id="Group_649" data-name="Group 649" transform="translate(9.953 5.316)">
          <path id="Path_379" data-name="Path 379" d="M944.445,836.14h0l-3.08,1.735a.761.761,0,0,1-1.142-.641V833.8a.761.761,0,0,1,1.142-.641l3.081,1.73A.714.714,0,0,1,944.445,836.14Z" transform="translate(-940.221 -833.058)" fill="#fff"/>
        </g>
        <g id="Group_650" data-name="Group 650">
          <path id="Path_380" data-name="Path 380" d="M938.388,831.336l-5.553-3.118-.581-.326a1.144,1.144,0,0,0-1.716.964V842.2a1.144,1.144,0,0,0,1.716.964l.491-.277.089-.05h0l3.828-2.157,1.727-.972a1.11,1.11,0,0,0,.571-.963V832.3A1.109,1.109,0,0,0,938.388,831.336Zm-1.725,6.426a.588.588,0,0,1-.3.511l-2.957,1.661a.379.379,0,0,1-.568-.319v-8.18a.378.378,0,0,1,.568-.319l2.957,1.66a.588.588,0,0,1,.3.512Z" transform="translate(-930.539 -827.741)" fill="#fff"/>
        </g>
      </g>
      <g id="Group_652" data-name="Group 652" transform="translate(-598.188 37.413)" opacity="0.4">
        <path id="Rectangle_70" data-name="Rectangle 70" d="M0,0H1387.286a4.856,4.856,0,0,1,4.856,4.856v5.856a4.856,4.856,0,0,1-4.856,4.856H0a0,0,0,0,1,0,0V0A0,0,0,0,1,0,0Z" transform="translate(0 0)" fill="#fff"/>
      </g>
      <g id="Group_655" data-name="Group 655" transform="translate(1006.302)">
        <g id="Group_653" data-name="Group 653" transform="translate(9.954 5.316)">
          <path id="Path_381" data-name="Path 381" d="M975.2,798.727h0l-3.079,1.734a.761.761,0,0,1-1.142-.64v-3.436a.761.761,0,0,1,1.141-.641l3.081,1.731A.713.713,0,0,1,975.2,798.727Z" transform="translate(-970.976 -795.645)" fill="#fff"/>
        </g>
        <g id="Group_654" data-name="Group 654">
          <path id="Path_382" data-name="Path 382" d="M969.143,793.923l-5.553-3.118-.582-.326a1.144,1.144,0,0,0-1.716.964v13.339a1.144,1.144,0,0,0,1.716.964l.492-.277.089-.049h0l3.828-2.157,1.726-.972a1.107,1.107,0,0,0,.57-.963v-6.44A1.108,1.108,0,0,0,969.143,793.923Zm-1.725,6.426a.587.587,0,0,1-.3.511l-2.956,1.661a.378.378,0,0,1-.567-.319v-8.18a.378.378,0,0,1,.567-.319l2.956,1.661a.588.588,0,0,1,.3.511Z" transform="translate(-961.293 -790.328)" fill="#fff"/>
        </g>
      </g>
      <g id="Group_656" data-name="Group 656" transform="translate(-596.998 0)" opacity="0.4">
        <path id="Rectangle_71" data-name="Rectangle 71" d="M0,0H1416.862a4.856,4.856,0,0,1,4.856,4.856v5.856a4.856,4.856,0,0,1-4.856,4.856H0a0,0,0,0,1,0,0V0A0,0,0,0,1,0,0Z" transform="translate(0)" fill="#fff"/>
      </g>
      <g id="Group_657" data-name="Group 657" transform="translate(2.369 81.594)">
        <path id="Path_383" data-name="Path 383" d="M745.7,907.32H-15.344v-.863H745.327l35.463-34.535h236.44v.863H781.158Z" transform="translate(15.344 -871.922)" fill="#fff"/>
      </g>
      <g id="Group_658" data-name="Group 658" transform="translate(2.369 7.352)">
        <path id="Path_384" data-name="Path 384" d="M762.076,872.785H-15.344v-.863H761.71l76.547-74.241H969v.863H838.623Z" transform="translate(15.344 -797.681)" fill="#fff"/>
      </g>
      <g id="Group_659" data-name="Group 659" transform="translate(0 44.757)">
        <path id="Path_385" data-name="Path 385" d="M1103.392,907.32H896.155l-.13-.126-73.6-71.247H-17.648v-.863H822.787l.13.126,73.6,71.247h206.871Z" transform="translate(17.648 -835.085)" fill="#fff"/>
      </g>
      <g id="Group_660" data-name="Group 660" transform="translate(1.179 7.344)">
        <path id="Path_386" data-name="Path 386" d="M937.382,835.957l-99.722-.009-.13-.126-38.366-37.286H-16.5v-.863H799.532l.13.126,38.366,37.286,99.354.009Z" transform="translate(16.501 -797.672)" fill="#fff"/>
      </g>
      <g id="Group_661" data-name="Group 661" transform="translate(1117.607 113.229)">
        <path id="Path_387" data-name="Path 387" d="M1.171.016,3.619.05A1.211,1.211,0,0,1,4.806,1.237L4.84,3.685A1.133,1.133,0,0,1,3.685,4.84L1.237,4.806A1.211,1.211,0,0,1,.05,3.619L.016,1.171A1.133,1.133,0,0,1,1.171.016Z" transform="translate(6.867 3.34) rotate(135)" fill="#fff"/>
      </g>
      <g id="Group_662" data-name="Group 662" transform="translate(1031.51 78.694)">
        <path id="Path_388" data-name="Path 388" d="M1.171.016,3.619.05A1.211,1.211,0,0,1,4.806,1.237L4.84,3.685A1.133,1.133,0,0,1,3.685,4.84L1.237,4.806A1.211,1.211,0,0,1,.05,3.619L.016,1.171A1.133,1.133,0,0,1,1.171.016Z" transform="translate(6.867 3.34) rotate(135)" fill="#fff"/>
      </g>
      <g id="Group_663" data-name="Group 663" transform="translate(951.628 41.857)">
        <path id="Path_389" data-name="Path 389" d="M1.171.016,3.619.05A1.211,1.211,0,0,1,4.806,1.237L4.84,3.685A1.133,1.133,0,0,1,3.685,4.84L1.237,4.806A1.211,1.211,0,0,1,.05,3.619L.016,1.171A1.133,1.133,0,0,1,1.171.016Z" transform="translate(6.867 3.34) rotate(135)" fill="#fff"/>
      </g>
      <g id="Group_664" data-name="Group 664" transform="translate(983.283 4.606)">
        <path id="Path_390" data-name="Path 390" d="M1.171.016,3.619.05A1.211,1.211,0,0,1,4.806,1.237L4.84,3.685A1.133,1.133,0,0,1,3.685,4.84L1.237,4.806A1.211,1.211,0,0,1,.05,3.619L.016,1.171A1.133,1.133,0,0,1,1.171.016Z" transform="translate(6.867 3.34) rotate(135)" fill="#fff"/>
      </g>
    </g>
    <path id="Rectangle_76" data-name="Rectangle 76" d="M0,0H1435.106a50.285,50.285,0,0,1,50.285,50.285V157.791a50.285,50.285,0,0,1-50.285,50.285H0a0,0,0,0,1,0,0V0A0,0,0,0,1,0,0Z" transform="translate(-619.465 748.467)" stroke="#cecece" stroke-miterlimit="10" stroke-width="1" fill="url(#linear-gradient)"/>
  </g>
</svg>
