<svg xmlns="http://www.w3.org/2000/svg" width="34.219" height="37.638" viewBox="0 0 34.219 37.638">
  <g id="Group_679" data-name="Group 679" transform="translate(-556.64 -1774.101)">
    <path id="Path_410" data-name="Path 410" d="M575.11,1782.787l-13.06-7.53-1.37-.79a2.693,2.693,0,0,0-4.04,2.33v32.25a2.7,2.7,0,0,0,4.04,2.33l1.15-.67.22-.12,9-5.22,4.06-2.35a2.687,2.687,0,0,0,1.34-2.32v-15.58A2.691,2.691,0,0,0,575.11,1782.787Zm-4.06,15.54a1.428,1.428,0,0,1-.72,1.24l-6.95,4.01a.886.886,0,0,1-1.33-.77v-19.78a.889.889,0,0,1,1.33-.77l6.95,4.02a1.4,1.4,0,0,1,.72,1.23Z" fill="#fff"/>
    <path id="Path_411" data-name="Path 411" d="M589.99,1794.407h-.01l-7.24,4.19a1.793,1.793,0,0,1-2.69-1.55v-8.3a1.791,1.791,0,0,1,2.69-1.55l7.24,4.18A1.75,1.75,0,0,1,589.99,1794.407Z" fill="#fff"/>
  </g>
</svg>
