<svg id="Vrstva_1" data-name="Vrstva 1" xmlns="http://www.w3.org/2000/svg" viewBox="0 0 366.98 97.17"><defs><style>.cls-1{fill:#3dae2b;}.cls-2{fill:#0d0f0e;}</style></defs><path class="cls-1" d="M720.27,238.36l-32.46-18.73-3.4-2a6.68,6.68,0,0,0-10,5.79v49.37a20.48,20.48,0,0,1,13.43-10.94V239a2.21,2.21,0,0,1,3.32-1.91l17.28,10a3.54,3.54,0,0,1,1.78,3.07v13.79c4.24.66,8.86,1.34,13.42,1.92V244.15A6.69,6.69,0,0,0,720.27,238.36Z" transform="translate(-674.38 -216.76)"/><path class="cls-1" d="M757.25,267.23h0a134,134,0,0,1-24.68-.54V253.16a4.45,4.45,0,0,1,6.68-3.85l18,10.4A4.34,4.34,0,0,1,757.25,267.23Z" transform="translate(-674.38 -216.76)"/><path class="cls-2" d="M723.61,265.8v17.05a6.7,6.7,0,0,1-3.33,5.79l-10.09,5.84-22.38,13h0l-.52.3-2.88,1.66a6.69,6.69,0,0,1-10-5.79V272.83a20.48,20.48,0,0,1,13.43-10.94v26.22a2.21,2.21,0,0,0,3.32,1.91l17.28-10a3.57,3.57,0,0,0,1.78-3.08V263.88C714.43,264.54,719.05,265.22,723.61,265.8Z" transform="translate(-674.38 -216.76)"/><path class="cls-2" d="M757.24,267.23l-18,10.42a4.45,4.45,0,0,1-6.68-3.85v-7.11A134,134,0,0,0,757.24,267.23Z" transform="translate(-674.38 -216.76)"/><path class="cls-2" d="M777.32,286.51V240.64h19.4a16.35,16.35,0,0,1,7.75,1.65A12.33,12.33,0,0,1,809.4,247a21.38,21.38,0,0,1,2.58,7.28,54.28,54.28,0,0,1,.74,9.3A39.56,39.56,0,0,1,811,276.41a14.89,14.89,0,0,1-5.3,7.59,15.05,15.05,0,0,1-8.93,2.51Zm9.17-8.24h9.3a6.18,6.18,0,0,0,4.53-1.65,9.9,9.9,0,0,0,2.45-4.92,35.89,35.89,0,0,0,.77-8.12,44.82,44.82,0,0,0-.49-7.35,13.26,13.26,0,0,0-1.46-4.49,5.16,5.16,0,0,0-2.42-2.23,8.46,8.46,0,0,0-3.38-.62h-9.3Z" transform="translate(-674.38 -216.76)"/><polygon class="cls-2" points="189.86 53.76 201.03 69.75 191.81 69.75 184.58 59.38 178.04 69.75 168.82 69.75 179.98 52.77 168.82 36.76 177.98 36.76 185.26 47.18 191.81 36.76 201.03 36.76 189.86 53.76"/><path class="cls-2" d="M925.21,286.51a8.48,8.48,0,0,1-6.08-2.21,8.07,8.07,0,0,1-2.34-6.15v-1.58a8,8,0,0,1,2.64-6.17c1.77-1.62,4.51-2.43,8.24-2.43h8.42v-2.42a6.28,6.28,0,0,0-.55-2.79,3.29,3.29,0,0,0-2.06-1.48,17.11,17.11,0,0,0-4.58-.46H919v-5.47a46.84,46.84,0,0,1,5.57-1.29,45.88,45.88,0,0,1,7.7-.54,22.09,22.09,0,0,1,7,1,8.1,8.1,0,0,1,4.43,3.38c1,1.6,1.5,3.81,1.5,6.88v21.76h-7.06l-1.61-3.87a5.87,5.87,0,0,1-1.47,1.11A23.46,23.46,0,0,1,932.5,285a19.45,19.45,0,0,1-3.38,1.08A17.23,17.23,0,0,1,925.21,286.51Zm4.61-6.33a7.42,7.42,0,0,0,1.39-.15c.51-.1,1-.23,1.6-.37s1.06-.29,1.53-.43.86-.28,1.17-.4.5-.21.58-.25v-6.31l-5.53.37a5.7,5.7,0,0,0-3.53,1.23,3.65,3.65,0,0,0-1.14,2.83v.58a1.89,1.89,0,0,0,.52,1.43,2.83,2.83,0,0,0,1.42,1.13A5.47,5.47,0,0,0,929.82,280.18Z" transform="translate(-674.38 -216.76)"/><path class="cls-1" d="M959.05,286.51a12.75,12.75,0,0,1-5.74-1.14,7.23,7.23,0,0,1-3.43-3.49,14.48,14.48,0,0,1-1.11-6.11V240.66h3a6.11,6.11,0,0,1,6.14,6.09v27.67a9.11,9.11,0,0,0,.37,2.91,2.88,2.88,0,0,0,1.14,1.57,5,5,0,0,0,2,.67l2.53.37v6.57Z" transform="translate(-674.38 -216.76)"/><path class="cls-1" d="M980.18,286.51v-33h7.19l1.87,3.91a18.67,18.67,0,0,1,4.62-2.73,13.63,13.63,0,0,1,5.54-1.18,11.2,11.2,0,0,1,6.43,1.58,8.36,8.36,0,0,1,3.09,4.25,18.7,18.7,0,0,1,.88,5.91v21.25h-9V266.42a5.3,5.3,0,0,0-.59-2.63,3.94,3.94,0,0,0-1.62-1.59,5.26,5.26,0,0,0-2.51-.55,10.15,10.15,0,0,0-2.48.3,11,11,0,0,0-2.26.86,14.11,14.11,0,0,0-2,1.29v22.41Z" transform="translate(-674.38 -216.76)"/><path class="cls-1" d="M966.37,253.52a12.9,12.9,0,0,1,5.77,1.13,7.17,7.17,0,0,1,3.41,3.5,14.45,14.45,0,0,1,1.11,6.11v22.25h-9.15l0-20.17a9.47,9.47,0,0,0-.37-2.92,2.9,2.9,0,0,0-1.14-1.56,4.93,4.93,0,0,0-1.94-.68l-2.47-.4v-7.27Z" transform="translate(-674.38 -216.76)"/><path class="cls-2" d="M832.22,280h0a13.37,13.37,0,0,1-4.13-.63,3.94,3.94,0,0,1-2.4-2.15,11.14,11.14,0,0,1-.77-3.88h8.31a17.39,17.39,0,0,0,5.65-.83,7.19,7.19,0,0,0,3.72-2.77,9.19,9.19,0,0,0,1.32-5.25,13.39,13.39,0,0,0-1.32-6.6,7.22,7.22,0,0,0-4.27-3.44,25.83,25.83,0,0,0-7.87-1,21.1,21.1,0,0,0-8.67,1.46,8.06,8.06,0,0,0-4.55,4.81,31.47,31.47,0,0,0-1.35,10.39,26.19,26.19,0,0,0,1.44,9.75,8.88,8.88,0,0,0,4.71,5.14,21.92,21.92,0,0,0,8.73,1.44h8.84l4.25-6.47Zm-6.86-17.11a4.1,4.1,0,0,1,1.78-2.49,6.65,6.65,0,0,1,3.32-.71,8.88,8.88,0,0,1,3.13.46,3.24,3.24,0,0,1,1.73,1.54,6.41,6.41,0,0,1,.55,2.86,3.36,3.36,0,0,1-.86,2.64,4.14,4.14,0,0,1-2.71.74h-7.5A17.76,17.76,0,0,1,825.36,262.93Z" transform="translate(-674.38 -216.76)"/><path class="cls-1" d="M1029.66,280h0a13.37,13.37,0,0,1-4.13-.63,3.94,3.94,0,0,1-2.4-2.15,11.14,11.14,0,0,1-.77-3.88h8.3a17.45,17.45,0,0,0,5.66-.83,7.19,7.19,0,0,0,3.72-2.77,9.19,9.19,0,0,0,1.32-5.25,13.39,13.39,0,0,0-1.32-6.6,7.22,7.22,0,0,0-4.27-3.44,25.66,25.66,0,0,0-7.84-1,21.26,21.26,0,0,0-8.7,1.46,8.06,8.06,0,0,0-4.55,4.81,31.47,31.47,0,0,0-1.35,10.39,26.19,26.19,0,0,0,1.44,9.75,8.85,8.85,0,0,0,4.71,5.14,21.9,21.9,0,0,0,8.72,1.44l1.46,0v0h7.39l4.25-6.47Zm-6.86-17.11a4.06,4.06,0,0,1,1.78-2.49,6.65,6.65,0,0,1,3.32-.71,8.88,8.88,0,0,1,3.13.46,3.22,3.22,0,0,1,1.72,1.54,6.27,6.27,0,0,1,.56,2.86,3.36,3.36,0,0,1-.86,2.64,4.14,4.14,0,0,1-2.71.74h-7.5A17.76,17.76,0,0,1,1022.8,262.93Z" transform="translate(-674.38 -216.76)"/><path class="cls-2" d="M915.57,253.52v7.3l-2.52.37a4.93,4.93,0,0,0-1.94.68,2.9,2.9,0,0,0-1.14,1.56,9.47,9.47,0,0,0-.37,2.92v20.16h-9.1V264.26a14.45,14.45,0,0,1,1.11-6.11,7.17,7.17,0,0,1,3.41-3.5,13.11,13.11,0,0,1,5.81-1.13Z" transform="translate(-674.38 -216.76)"/><path class="cls-2" d="M892.79,279.38l4.19.37v6.76h-6a14.64,14.64,0,0,1-6.18-1.11,6.61,6.61,0,0,1-3.42-3.69,17.7,17.7,0,0,1-.92-6.94l.31-14h-6.71l4.81-7.29h2.21l0-4.56a4.72,4.72,0,0,1,4.72-4.69h3.68v9.25h11.3l-4.39,7.29h-6.91V274.7a8,8,0,0,0,.25,2.22,3.46,3.46,0,0,0,.71,1.38,2.69,2.69,0,0,0,1.07.77A4.28,4.28,0,0,0,892.79,279.38Z" transform="translate(-674.38 -216.76)"/><path class="cls-2" d="M807.21,310.18a6.36,6.36,0,0,1-1.84-.24,2.84,2.84,0,0,1-1.35-.85,4.15,4.15,0,0,1-.84-1.79,13,13,0,0,1-.28-3,11.83,11.83,0,0,1,.3-2.93,4.17,4.17,0,0,1,.86-1.78,3,3,0,0,1,1.36-.88,6.35,6.35,0,0,1,1.82-.25,11.74,11.74,0,0,1,1.5.09c.47.06.89.12,1.26.2a6.31,6.31,0,0,1,1,.26v1.79l-.78-.13c-.33,0-.7-.07-1.12-.1s-.85,0-1.31,0a3.82,3.82,0,0,0-1.15.15,1.41,1.41,0,0,0-.76.55,3.1,3.1,0,0,0-.42,1.14,11.47,11.47,0,0,0-.13,1.95,12.36,12.36,0,0,0,.12,1.9,3.09,3.09,0,0,0,.39,1.16,1.43,1.43,0,0,0,.75.57,3.68,3.68,0,0,0,1.2.17c.81,0,1.47,0,2-.05s.92-.07,1.23-.11v1.78a8.69,8.69,0,0,1-1,.24c-.37.06-.78.12-1.23.15S807.76,310.18,807.21,310.18Z" transform="translate(-674.38 -216.76)"/><path class="cls-2" d="M821.51,310.17a6.9,6.9,0,0,1-1.82-.21,2.67,2.67,0,0,1-1.23-.7,3.17,3.17,0,0,1-.69-1.33,8.42,8.42,0,0,1-.21-2,8.87,8.87,0,0,1,.21-2.11,2.88,2.88,0,0,1,.69-1.3,2.62,2.62,0,0,1,1.24-.67,8.38,8.38,0,0,1,3.64,0,2.78,2.78,0,0,1,1.23.68,2.74,2.74,0,0,1,.69,1.31,8.16,8.16,0,0,1,.22,2.09,8.66,8.66,0,0,1-.21,2.08,2.84,2.84,0,0,1-.67,1.32,2.64,2.64,0,0,1-1.23.68A7.15,7.15,0,0,1,821.51,310.17Zm0-1.83a3,3,0,0,0,.73-.08.84.84,0,0,0,.48-.32,1.66,1.66,0,0,0,.28-.74,6.63,6.63,0,0,0,.1-1.31,6.5,6.5,0,0,0-.1-1.31,1.61,1.61,0,0,0-.28-.73.84.84,0,0,0-.48-.32,3.33,3.33,0,0,0-1.45,0,.94.94,0,0,0-.49.32,1.74,1.74,0,0,0-.28.73,7.49,7.49,0,0,0-.09,1.31,7.65,7.65,0,0,0,.09,1.31,1.79,1.79,0,0,0,.28.74.94.94,0,0,0,.49.32A3,3,0,0,0,821.51,308.34Z" transform="translate(-674.38 -216.76)"/><path class="cls-2" d="M836.21,310.17a6.82,6.82,0,0,1-1.81-.21,2.57,2.57,0,0,1-1.23-.7,3,3,0,0,1-.69-1.33,7.9,7.9,0,0,1-.22-2,8.32,8.32,0,0,1,.22-2.11,2.7,2.7,0,0,1,.69-1.3,2.57,2.57,0,0,1,1.24-.67,7.33,7.33,0,0,1,1.8-.2,7.5,7.5,0,0,1,1.84.2,2.83,2.83,0,0,1,1.23.68,2.92,2.92,0,0,1,.69,1.31,10.46,10.46,0,0,1,0,4.17,2.75,2.75,0,0,1-.67,1.32,2.55,2.55,0,0,1-1.23.68A7.15,7.15,0,0,1,836.21,310.17Zm0-1.83a3.1,3.1,0,0,0,.74-.08.91.91,0,0,0,.48-.32,1.94,1.94,0,0,0,.28-.74,7.5,7.5,0,0,0,.1-1.31,7.33,7.33,0,0,0-.1-1.31,1.88,1.88,0,0,0-.28-.73.91.91,0,0,0-.48-.32,3.1,3.1,0,0,0-.74-.08,3,3,0,0,0-.71.08.9.9,0,0,0-.49.32,1.61,1.61,0,0,0-.28.73,7.49,7.49,0,0,0-.09,1.31,7.65,7.65,0,0,0,.09,1.31,1.66,1.66,0,0,0,.28.74.9.9,0,0,0,.49.32A3,3,0,0,0,836.21,308.34Z" transform="translate(-674.38 -216.76)"/><path class="cls-2" d="M849.92,310.17a3.59,3.59,0,0,1-1.52-.28,1.88,1.88,0,0,1-.89-.89,3.63,3.63,0,0,1-.29-1.55v-9.19h2.38v8.85a2.13,2.13,0,0,0,.1.74.7.7,0,0,0,.29.39,1.46,1.46,0,0,0,.51.18l.66.09v1.66Z" transform="translate(-674.38 -216.76)"/><path class="cls-2" d="M867.62,300.58c-.23,0-.34-.1-.34-.31v-1.52c0-.22.11-.33.34-.33h1.83a.28.28,0,0,1,.22.09.33.33,0,0,1,.08.24v1.52c0,.21-.1.31-.3.31Zm-.29,9.59v-8.36h2.37v8.36Z" transform="translate(-674.38 -216.76)"/><path class="cls-2" d="M877,310.17v-8.36h2l.42.86a4.75,4.75,0,0,1,1.21-.69,4,4,0,0,1,1.5-.31,2.82,2.82,0,0,1,1.64.41,2.15,2.15,0,0,1,.82,1.08,4.72,4.72,0,0,1,.23,1.5v5.51H882.4V305a1.36,1.36,0,0,0-.15-.67,1.06,1.06,0,0,0-.43-.41,1.47,1.47,0,0,0-.66-.13,2.81,2.81,0,0,0-.65.07,2.76,2.76,0,0,0-.59.22,3,3,0,0,0-.54.33v5.8Z" transform="translate(-674.38 -216.76)"/><path class="cls-2" d="M901.64,310.17v-8.36h1.83l.55,1.28a4.86,4.86,0,0,1,1.05-1,2.38,2.38,0,0,1,1.39-.41l.36,0a1.72,1.72,0,0,1,.34.06v2.36l-.5-.05a4.52,4.52,0,0,0-.51,0,3.12,3.12,0,0,0-.84.1,2.65,2.65,0,0,0-.69.29,2.81,2.81,0,0,0-.6.51v5.2Z" transform="translate(-674.38 -216.76)"/><path class="cls-2" d="M914.19,300.58c-.23,0-.34-.1-.34-.31v-1.52c0-.22.11-.33.34-.33H916a.27.27,0,0,1,.22.09.33.33,0,0,1,.08.24v1.52c0,.21-.1.31-.3.31Zm-.29,9.59v-8.36h2.38v8.36Z" transform="translate(-674.38 -216.76)"/><path class="cls-2" d="M925.81,313.92a4.34,4.34,0,0,1-1.46-.23,2.28,2.28,0,0,1-1-.68,1.63,1.63,0,0,1-.37-1.1v-.25a1.75,1.75,0,0,1,.39-1.14,2.37,2.37,0,0,1,1-.72,3.51,3.51,0,0,1,1.34-.25l.7.71a1.71,1.71,0,0,0-.62.11,1,1,0,0,0-.43.32.89.89,0,0,0-.15.52v.17a.78.78,0,0,0,.32.69,1.51,1.51,0,0,0,.92.23h1.63a1.8,1.8,0,0,0,1-.22.75.75,0,0,0,.36-.68v-.25a.79.79,0,0,0-.13-.47,1,1,0,0,0-.41-.31,1.92,1.92,0,0,0-.71-.11h-1.91a3.59,3.59,0,0,1-2.15-.52,1.59,1.59,0,0,1-.32-2.35,1.92,1.92,0,0,1,1.05-.57,2.54,2.54,0,0,1-.82-.64,2.35,2.35,0,0,1-.43-.83,3.1,3.1,0,0,1-.13-.92,2.76,2.76,0,0,1,.39-1.53A2.35,2.35,0,0,1,925,302a5.73,5.73,0,0,1,2-.3h4.68V303l-1.32.24a2.17,2.17,0,0,1,.29.36,1.88,1.88,0,0,1,.25.55,2.78,2.78,0,0,1,.11.83,2.62,2.62,0,0,1-.32,1.29,2.22,2.22,0,0,1-1,.92,4.06,4.06,0,0,1-1.81.34H926.4a1.64,1.64,0,0,0-.71.13.45.45,0,0,0-.27.45.35.35,0,0,0,.23.36,1.29,1.29,0,0,0,.53.11h2.37a5.17,5.17,0,0,1,1.69.24,2.08,2.08,0,0,1,1.06.81,2.54,2.54,0,0,1,.37,1.45v.24a2.45,2.45,0,0,1-.8,1.93,3.64,3.64,0,0,1-2.48.71Zm.93-8.16h.91a1.6,1.6,0,0,0,.77-.14.86.86,0,0,0,.37-.41,1.9,1.9,0,0,0,0-1.3.84.84,0,0,0-.4-.37,1.67,1.67,0,0,0-.64-.11h-.9a1.37,1.37,0,0,0-.92.26,1.12,1.12,0,0,0-.3.89,1.2,1.2,0,0,0,.29.9A1.15,1.15,0,0,0,926.74,305.76Z" transform="translate(-674.38 -216.76)"/><path class="cls-2" d="M938.39,310.17V298.31h2.38v4.36A4.7,4.7,0,0,1,942,302a3.93,3.93,0,0,1,1.54-.32,2.8,2.8,0,0,1,1.55.38,2.06,2.06,0,0,1,.84,1,4.4,4.4,0,0,1,.26,1.56v5.52h-2.38v-5.23a1.26,1.26,0,0,0-.16-.67,1,1,0,0,0-.44-.39,1.41,1.41,0,0,0-.64-.13,2.36,2.36,0,0,0-.65.08,2.78,2.78,0,0,0-.59.23,3.6,3.6,0,0,0-.54.31v5.8Z" transform="translate(-674.38 -216.76)"/><path class="cls-2" d="M956.69,310.17a3.88,3.88,0,0,1-1.61-.28,1.66,1.66,0,0,1-.89-.93,4.07,4.07,0,0,1-.24-1.76l.08-3.53h-1.35v-1.48l1.43-.38.32-2.33h1.88v2.33h2v1.86h-2v3.52a2.23,2.23,0,0,0,.06.56.91.91,0,0,0,.19.35.77.77,0,0,0,.28.19,1.25,1.25,0,0,0,.32.08l1.09.09v1.71Z" transform="translate(-674.38 -216.76)"/><path class="cls-2" d="M976.3,310.06,974,301.7h2.46l1.36,6.23,1.71-6.23h2l1.7,6.23,1.24-6.23h2.46l-2.25,8.36H982L980.48,305l-1.59,5.09Z" transform="translate(-674.38 -216.76)"/><path class="cls-2" d="M995,310.15a2.24,2.24,0,0,1-1.59-.56,2,2,0,0,1-.61-1.55v-.75a2,2,0,0,1,.69-1.56,3.17,3.17,0,0,1,2.15-.62h2.2v-.58a1.24,1.24,0,0,0-.14-.64.9.9,0,0,0-.54-.38,5,5,0,0,0-1.2-.11h-2.58v-1.34a12.18,12.18,0,0,1,1.45-.33,12.59,12.59,0,0,1,2-.14,5.85,5.85,0,0,1,1.84.25,2.1,2.1,0,0,1,1.16.86,3.07,3.07,0,0,1,.39,1.68v5.68h-1.88l-.38-.89a1.51,1.51,0,0,1-.39.28,4.71,4.71,0,0,1-.67.32,5.7,5.7,0,0,1-.88.28A4.9,4.9,0,0,1,995,310.15Zm1.2-1.6a1.73,1.73,0,0,0,.37,0l.41-.09.41-.11.3-.1.15-.06V306.2l-1.44.09a1.6,1.6,0,0,0-.93.31.91.91,0,0,0-.29.72v.34a.93.93,0,0,0,.13.52.82.82,0,0,0,.37.29A1.72,1.72,0,0,0,996.19,308.55Z" transform="translate(-674.38 -216.76)"/><path class="cls-2" d="M1010.12,313.93l1-3.87a3,3,0,0,1-1.27-.26,2.56,2.56,0,0,1-.91-.76,3.62,3.62,0,0,1-.55-1.22l-1.62-6.12h2.47l1.37,5.65a1.21,1.21,0,0,0,.21.47.76.76,0,0,0,.27.24.81.81,0,0,0,.26.09l.19,0,1.56-6.48h2.41l-2.57,10.51-.81,1.72Z" transform="translate(-674.38 -216.76)"/><rect class="cls-1" x="290.88" y="23.89" width="10.13" height="8.8" rx="3.95"/></svg>