<svg id="Vrstva_1" data-name="Vrstva 1" xmlns="http://www.w3.org/2000/svg" viewBox="0 0 895.37 99.63"><defs><style>.cls-1{fill:#fff;}.cls-2{opacity:0.4;}</style></defs><g id="SubG"><path class="cls-1" d="M893.84,111.81h0l-2.4,1.39a.59.59,0,0,1-.89-.51v-2.75a.59.59,0,0,1,.89-.52l2.4,1.39A.58.58,0,0,1,893.84,111.81Z" transform="translate(1.24 -17.93)"/><path class="cls-1" d="M888.91,108l-4.33-2.5-.45-.26a.9.9,0,0,0-1.34.78v10.68a.89.89,0,0,0,1.34.77l.38-.22.07,0h0l3-1.73,1.35-.77a.89.89,0,0,0,.44-.78v-5.15A.91.91,0,0,0,888.91,108Zm-1.35,5.15a.47.47,0,0,1-.23.41L885,114.85a.3.3,0,0,1-.44-.25V108a.29.29,0,0,1,.44-.25l2.31,1.33a.47.47,0,0,1,.23.41Z" transform="translate(1.24 -17.93)"/><g class="cls-2"><path class="cls-1" d="M0,87.15H661.45A4.86,4.86,0,0,1,666.3,92v2.76a4.86,4.86,0,0,1-4.86,4.86H0a0,0,0,0,1,0,0V87.15A0,0,0,0,1,0,87.15Z"/></g><path class="cls-1" d="M825,84.14h0l-2.4,1.39a.59.59,0,0,1-.89-.51V82.27a.6.6,0,0,1,.89-.52l2.4,1.39A.57.57,0,0,1,825,84.14Z" transform="translate(1.24 -17.93)"/><path class="cls-1" d="M820.05,80.29l-4.32-2.49-.46-.26a.88.88,0,0,0-1.33.77V89a.89.89,0,0,0,1.33.78l.39-.22.07,0h0l3-1.72,1.35-.78a.91.91,0,0,0,.44-.77V81.07A.9.9,0,0,0,820.05,80.29Zm-1.34,5.15a.46.46,0,0,1-.24.41l-2.3,1.33a.29.29,0,0,1-.44-.25V80.37a.29.29,0,0,1,.44-.25l2.3,1.33a.46.46,0,0,1,.24.41Z" transform="translate(1.24 -17.93)"/><g class="cls-2"><path class="cls-1" d="M0,59.49H637.93a4.86,4.86,0,0,1,4.86,4.86V67.1A4.86,4.86,0,0,1,637.93,72H0a0,0,0,0,1,0,0V59.49a0,0,0,0,1,0,0Z"/></g><path class="cls-1" d="M767.63,54.63h0L765.23,56a.59.59,0,0,1-.89-.51V52.76a.59.59,0,0,1,.89-.52l2.4,1.39A.58.58,0,0,1,767.63,54.63Z" transform="translate(1.24 -17.93)"/><path class="cls-1" d="M762.7,50.78l-4.33-2.5-.45-.26a.89.89,0,0,0-1.34.77V59.48a.89.89,0,0,0,1.34.77l.38-.22.07,0h0l3-1.73,1.35-.77a.91.91,0,0,0,.44-.78V51.55A.91.91,0,0,0,762.7,50.78Zm-1.35,5.15a.47.47,0,0,1-.23.41l-2.31,1.33a.29.29,0,0,1-.44-.25V50.86a.29.29,0,0,1,.44-.25l2.31,1.33a.47.47,0,0,1,.23.41Z" transform="translate(1.24 -17.93)"/><g class="cls-2"><path class="cls-1" d="M0,30H612.11A4.86,4.86,0,0,1,617,34.83v2.76a4.86,4.86,0,0,1-4.86,4.86H0a0,0,0,0,1,0,0V30A0,0,0,0,1,0,30Z"/></g><path class="cls-1" d="M792.27,24.66h0l-2.4,1.39a.59.59,0,0,1-.89-.52V22.78a.59.59,0,0,1,.89-.51l2.4,1.38A.59.59,0,0,1,792.27,24.66Z" transform="translate(1.24 -17.93)"/><path class="cls-1" d="M787.34,20.81,783,18.31l-.45-.26a.89.89,0,0,0-1.34.77V29.51a.89.89,0,0,0,1.34.77l.38-.22.07,0h0l3-1.73,1.35-.78a.89.89,0,0,0,.44-.77V21.58A.89.89,0,0,0,787.34,20.81ZM786,26a.47.47,0,0,1-.24.41l-2.3,1.33a.29.29,0,0,1-.44-.26V20.89a.29.29,0,0,1,.44-.26l2.3,1.33a.47.47,0,0,1,.24.41Z" transform="translate(1.24 -17.93)"/><g class="cls-2"><path class="cls-1" d="M0,0H636.09a4.86,4.86,0,0,1,4.86,4.86V7.62a4.86,4.86,0,0,1-4.86,4.86H0a0,0,0,0,1,0,0V0A0,0,0,0,1,0,0Z"/></g><polygon class="cls-1" points="593.15 93.73 0.01 93.73 0.01 93.04 592.87 93.04 620.51 65.37 804.78 65.37 804.78 66.06 620.79 66.06 593.15 93.73"/><polygon class="cls-1" points="605.92 66.06 0.01 66.06 0.01 65.37 605.64 65.37 665.3 5.89 767.2 5.89 767.2 6.58 665.58 6.58 605.92 66.06"/><polygon class="cls-1" points="871.89 93.73 710.37 93.73 710.27 93.63 652.9 36.55 0.03 36.55 0.03 35.86 653.19 35.86 653.29 35.96 710.66 93.04 871.89 93.04 871.89 93.73"/><polygon class="cls-1" points="742.53 36.56 664.81 36.55 664.71 36.45 634.8 6.58 0 6.58 0 5.88 635.09 5.88 635.19 5.99 665.09 35.86 742.53 35.86 742.53 36.56"/><rect class="cls-1" x="868.75" y="109.43" width="3.78" height="3.78" rx="1.15" transform="translate(1566.24 -443.53) rotate(135)"/><rect class="cls-1" x="801.65" y="81.76" width="3.78" height="3.78" rx="1.15" transform="translate(1432.12 -443.32) rotate(135)"/><rect class="cls-1" x="739.39" y="52.25" width="3.78" height="3.78" rx="1.15" transform="translate(1304.97 -449.67) rotate(135)"/><rect class="cls-1" x="764.06" y="22.4" width="3.78" height="3.78" rx="1.15" transform="translate(1325.99 -518.07) rotate(135)"/></g></svg>