<svg xmlns="http://www.w3.org/2000/svg" width="188.788" height="53.099" viewBox="0 0 188.788 53.099">
  <g id="SubG" transform="translate(0)" opacity="0.54">
    <g id="Group_45" data-name="Group 45" transform="translate(0 46.452)">
      <g id="Group_43" data-name="Group 43" transform="translate(4.134 2.27)">
        <path id="Path_148" data-name="Path 148" d="M774.781,2237.935h0l-1.279.74a.316.316,0,0,1-.474-.273v-1.467a.316.316,0,0,1,.474-.274l1.28.739A.309.309,0,0,1,774.781,2237.935Z" transform="translate(-773.027 -2236.619)" fill="#e6e6e6"/>
      </g>
      <g id="Group_44" data-name="Group 44">
        <path id="Path_149" data-name="Path 149" d="M765.176,2232.053l-2.307-1.332-.241-.139a.475.475,0,0,0-.713.412v5.7a.475.475,0,0,0,.713.412l.2-.118.037-.021h0l1.59-.921.717-.415a.476.476,0,0,0,.237-.411v-2.75A.475.475,0,0,0,765.176,2232.053Zm-.717,2.743a.253.253,0,0,1-.126.219l-1.228.709a.157.157,0,0,1-.236-.136v-3.493a.157.157,0,0,1,.236-.136l1.228.709a.252.252,0,0,1,.126.218Z" transform="translate(-761.915 -2230.518)" fill="#e6e6e6"/>
      </g>
    </g>
    <g id="Group_46" data-name="Group 46" transform="translate(122.089 46.451)" opacity="0.4">
      <path id="Rectangle_4" data-name="Rectangle 4" d="M0,0H62.391a3.324,3.324,0,0,1,3.324,3.324v0a3.324,3.324,0,0,1-3.324,3.324H0a0,0,0,0,1,0,0V0A0,0,0,0,1,0,0Z" transform="translate(65.715 6.648) rotate(-180)" fill="#e6e6e6"/>
    </g>
    <g id="Group_49" data-name="Group 49" transform="translate(36.698 31.705)">
      <g id="Group_47" data-name="Group 47" transform="translate(4.134 2.27)">
        <path id="Path_150" data-name="Path 150" d="M873.413,2198.3h0l-1.279.74a.316.316,0,0,1-.474-.273V2197.3a.316.316,0,0,1,.474-.273l1.28.739A.309.309,0,0,1,873.413,2198.3Z" transform="translate(-871.659 -2196.986)" fill="#e6e6e6"/>
      </g>
      <g id="Group_48" data-name="Group 48">
        <path id="Path_151" data-name="Path 151" d="M863.808,2192.419l-2.307-1.331-.241-.14a.475.475,0,0,0-.713.412v5.7a.475.475,0,0,0,.713.411l.2-.118.037-.021h0l1.59-.921.717-.415a.474.474,0,0,0,.237-.411v-2.75A.475.475,0,0,0,863.808,2192.419Zm-.717,2.744a.252.252,0,0,1-.126.218l-1.228.709a.157.157,0,0,1-.236-.136v-3.493a.157.157,0,0,1,.236-.136l1.228.709a.251.251,0,0,1,.126.218Z" transform="translate(-860.547 -2190.884)" fill="#e6e6e6"/>
      </g>
    </g>
    <g id="Group_50" data-name="Group 50" transform="translate(134.623 31.705)" opacity="0.4">
      <path id="Rectangle_5" data-name="Rectangle 5" d="M.469,0H49.856A3.324,3.324,0,0,1,53.18,3.324v0a3.324,3.324,0,0,1-3.324,3.324H.469A.469.469,0,0,1,0,6.178V.469A.469.469,0,0,1,.469,0Z" transform="translate(53.18 6.648) rotate(-180)" fill="#e6e6e6"/>
    </g>
    <g id="Group_53" data-name="Group 53" transform="translate(67.268 15.975)">
      <g id="Group_51" data-name="Group 51" transform="translate(4.134 2.27)">
        <path id="Path_152" data-name="Path 152" d="M955.575,2156.026h0l-1.279.74a.316.316,0,0,1-.474-.273v-1.467a.316.316,0,0,1,.474-.274l1.28.739A.308.308,0,0,1,955.575,2156.026Z" transform="translate(-953.821 -2154.709)" fill="#e6e6e6"/>
      </g>
      <g id="Group_52" data-name="Group 52">
        <path id="Path_153" data-name="Path 153" d="M945.97,2150.143l-2.307-1.331-.241-.139a.475.475,0,0,0-.713.412v5.7a.475.475,0,0,0,.713.411l.2-.118.037-.021h0l1.59-.921.717-.415a.476.476,0,0,0,.237-.411v-2.75A.476.476,0,0,0,945.97,2150.143Zm-.717,2.744a.252.252,0,0,1-.126.218l-1.228.709a.157.157,0,0,1-.236-.136v-3.493a.157.157,0,0,1,.236-.136l1.228.709a.253.253,0,0,1,.126.219Z" transform="translate(-942.709 -2148.608)" fill="#e6e6e6"/>
      </g>
    </g>
    <g id="Group_54" data-name="Group 54" transform="translate(148.387 15.975)" opacity="0.4">
      <path id="Rectangle_6" data-name="Rectangle 6" d="M0,0H36.587a3.324,3.324,0,0,1,3.324,3.324v0a3.324,3.324,0,0,1-3.324,3.324H0a0,0,0,0,1,0,0V0A0,0,0,0,1,0,0Z" transform="translate(39.911 6.648) rotate(180)" fill="#e6e6e6"/>
    </g>
    <g id="Group_57" data-name="Group 57" transform="translate(54.136)">
      <g id="Group_55" data-name="Group 55" transform="translate(0 2.27)">
        <path id="Path_154" data-name="Path 154" d="M907.568,2113.09h0l1.279.74a.316.316,0,0,0,.475-.273v-1.467a.316.316,0,0,0-.474-.273l-1.28.739A.309.309,0,0,0,907.568,2113.09Z" transform="translate(-907.414 -2111.773)" fill="#e6e6e6"/>
      </g>
      <g id="Group_56" data-name="Group 56" transform="translate(2.544)">
        <path id="Path_155" data-name="Path 155" d="M914.252,2107.619v2.75a.475.475,0,0,0,.237.411l.717.416,1.59.921h0l.037.022.2.118a.475.475,0,0,0,.713-.412v-5.7a.475.475,0,0,0-.713-.412l-.242.14-2.306,1.331A.475.475,0,0,0,914.252,2107.619Zm.954.422a.253.253,0,0,1,.126-.219l1.228-.709a.157.157,0,0,1,.236.136v3.493a.157.157,0,0,1-.236.136l-1.228-.709a.253.253,0,0,1-.126-.218Z" transform="translate(-914.252 -2105.672)" fill="#e6e6e6"/>
      </g>
    </g>
    <g id="Group_58" data-name="Group 58" transform="translate(135.606 0)" opacity="0.4">
      <path id="Rectangle_7" data-name="Rectangle 7" d="M0,0H48.873A3.324,3.324,0,0,1,52.2,3.324v0a3.324,3.324,0,0,1-3.324,3.324H0a0,0,0,0,1,0,0V0A0,0,0,0,1,0,0Z" transform="translate(52.197 6.648) rotate(180)" fill="#e6e6e6"/>
    </g>
    <g id="Group_59" data-name="Group 59" transform="translate(48.281 34.841)">
      <path id="Path_156" data-name="Path 156" d="M1004.473,2214.427H1031.2v-.369h-26.576l-14.731-14.746H891.679v.368h98.063Z" transform="translate(-891.679 -2199.312)" fill="#e6e6e6"/>
    </g>
    <g id="Group_60" data-name="Group 60" transform="translate(68.315 3.14)">
      <path id="Path_157" data-name="Path 157" d="M1031.477,2146.18h33.533v-.369h-33.381l-31.8-31.7H945.521v.369H999.68Z" transform="translate(-945.521 -2114.11)" fill="#e6e6e6"/>
    </g>
    <g id="Group_61" data-name="Group 61" transform="translate(12.517 19.111)">
      <path id="Path_158" data-name="Path 158" d="M795.557,2187.881h86.085l.054-.054,30.575-30.423h59.557v-.368H912.119l-.054.053-30.575,30.423H795.557Z" transform="translate(-795.557 -2157.037)" fill="#e6e6e6"/>
    </g>
    <g id="Group_62" data-name="Group 62" transform="translate(81.464 3.136)">
      <path id="Path_159" data-name="Path 159" d="M980.861,2130.448l41.424,0,.054-.054,15.937-15.921h49.42v-.368h-49.573l-.054.054-15.937,15.921-41.271,0Z" transform="translate(-980.861 -2114.1)" fill="#e6e6e6"/>
    </g>
    <g id="Group_63" data-name="Group 63" transform="translate(11.091 48.349)">
      <rect id="Rectangle_8" data-name="Rectangle 8" width="2.017" height="2.017" rx="1.009" transform="translate(1.426) rotate(45)" fill="#e6e6e6"/>
    </g>
    <g id="Group_64" data-name="Group 64" transform="translate(46.855 33.603)">
      <rect id="Rectangle_9" data-name="Rectangle 9" width="2.017" height="2.017" rx="1.009" transform="translate(1.426 0) rotate(45)" fill="#e6e6e6"/>
    </g>
    <g id="Group_65" data-name="Group 65" transform="translate(80.037 17.873)">
      <rect id="Rectangle_10" data-name="Rectangle 10" width="2.017" height="2.017" rx="1.009" transform="translate(1.426) rotate(45)" fill="#e6e6e6"/>
    </g>
    <g id="Group_66" data-name="Group 66" transform="translate(66.888 1.967)">
      <rect id="Rectangle_11" data-name="Rectangle 11" width="2.017" height="2.017" rx="1.009" transform="translate(1.426 0) rotate(45)" fill="#e6e6e6"/>
    </g>
  </g>
</svg>
