<svg id="Vrstva_1" data-name="Vrstva 1" xmlns="http://www.w3.org/2000/svg" xmlns:xlink="http://www.w3.org/1999/xlink" viewBox="0 0 2003.48 455.61"><defs><style>.cls-1{fill:#0d0f0e;}.cls-2{fill:#44ac34;}.cls-3{opacity:0.18;isolation:isolate;fill:url(#Nepojmenovaný_přechod_3);}.cls-4{fill:#eeeded;}.cls-5{fill:#d7d8d8;}</style><linearGradient id="Nepojmenovaný_přechod_3" x1="2892.61" y1="3645.46" x2="2865.3" y2="3985.57" gradientTransform="matrix(1, 0, 0, -1, -2399.53, 3402.86)" gradientUnits="userSpaceOnUse"><stop offset="0" stop-color="#fff"/><stop offset="1" stop-color="#44ac34"/></linearGradient></defs><g id="Vlna_Iso" data-name="Vlna Iso"><g id="Vrstva_1-2" data-name="Vrstva 1-2"><path class="cls-1" d="M-518.84-504.53S-333-317.85-139.06-310.86c388.36,14,553.16-69.95,553.16-69.95L747.68-505.65s-336.8,14.85-472.57,33.14c-545,73.47-793.95-155.62-793.95-155.62Z" transform="translate(518.84 628.13)"/><path class="cls-1" d="M714.38-424S1119.5-572.88,1483.3-463C1483.3-463,1240.2-664.92,714.38-424Z" transform="translate(518.84 628.13)"/><path class="cls-2" d="M1483.31-463c-86.61-53.06-299-85.77-564.43-26.31C426.23-378.93,351.44-137.21-518.8-176.86v-4.07l0-373.44c222.34,114.85,548.66,128,865.05,58.77,603.06-132,968.64-116.67,1116.86-1.66a52.47,52.47,0,0,1,18.54,28Z" transform="translate(518.84 628.13)"/><path class="cls-3" d="M1476.53-481.18a109.31,109.31,0,0,1-14.3-6C1222.75-611,902.46-556.34,360.35-401.13s-874.54,44.54-874.54,44.54l-4.62-1.54,0-196.24c222.35,114.85,548.66,128,865.05,58.77C950.28-627.81,1316-612.21,1463.76-496.73a50.54,50.54,0,0,1,10.52,11.93Z" transform="translate(518.84 628.13)"/><path class="cls-4" d="M-20-190.17c16.23-1.93,32.4-4.24,48.57-6.8s32.27-5.31,48.31-8.31q48.23-8.92,95.88-20.47,23.79-5.75,47.41-12.24t47-13.67q23.34-7.2,46.47-15.29c15.39-5.43,30.68-11.05,45.82-17.1,3.77-1.53,7.58-3.12,11.33-4.59l5.65-2.34,5.62-2.37c3.77-1.6,7.49-3.12,11.23-4.87,1.84-.78,3.72-1.63,5.56-2.47l5.58-2.5,11.08-5.15,11.12-5.18,22.25-10.36c29.68-13.79,59.52-27.34,89.58-40.35,60.08-26.07,121-50.25,183-71.79q46.44-16.11,93.63-30.09t95.07-25.34c31.93-7.52,64.11-14.11,96.47-19.54s64.92-9.74,97.66-12.48c4.09-.38,8.18-.69,12.27-1l6.24-.47,6.25-.41c4.08-.25,8.2-.53,12.29-.71l6.24-.32,6.25-.25c8.21-.34,16.45-.53,24.65-.68h24.72c8.21,0,16.42.34,24.63.65s16.42.78,24.62,1.41,16.39,1.34,24.57,2.15l6.24.69,3.12.34,3.12.37,6.24.75,6.25.85q24.43,3.3,48.56,8.45l3.12.66,3.12.66,6,1.37,6,1.4c2,.5,4,1,6,1.5l6,1.53c2,.5,4,1.09,6,1.62l5.93,1.63,5.9,1.74q23.63,7,46.57,16a234.18,234.18,0,0,1,39.51,20.35v.32a264.64,264.64,0,0,0-40.35-18l-5.81-2-5.8-1.9-5.84-1.84-5.84-1.78-2.93-.88-2.93-.84-7.06-1.75-5.9-1.62-5.93-1.56-5.9-1.5c-2-.53-4-1-6-1.46s-3.93-1-5.93-1.41l-6-1.31-6-1.31-6-1.25-6-1.15-3.13-.6-3.12-.56-5.77-1.09-6.24-1c-4-.72-8-1.31-12-1.94l-6-.87-6.06-.81c-4.06-.53-8.08-1.09-12.11-1.53q-24.25-2.84-48.63-4.24l-6.24-.32-6.24-.28h-6.24l-6.25-.22c-8.14-.21-16.26-.4-24.4-.4q-24.4,0-48.82,1t-48.75,3.12c-32.46,2.84-64.79,7.08-96.94,12.48s-64.14,11.92-95.88,19.38a1948.82,1948.82,0,0,0-187.11,54.78q-46.29,16-91.92,33.86T542.13-356.4c-30,12.92-59.81,26.34-89.49,40l-22.25,10.3-11.14,5.15-5.59,2.56L408-295.82q-22.53,10-45.5,18.73c-30.62,11.83-61.77,22.25-93.2,31.49S206.1-228.22,174.11-221q-24,5.34-48.09,10T77.67-202.5c-16.14,2.59-32.37,5-48.6,7.15q-12.16,1.59-24.37,3.12c-8.12.91-16.26,1.75-24.41,2.43Z" transform="translate(518.84 628.13)"/><path class="cls-5" d="M-514.1-552.13c7.06,3.47,14.24,6.65,21.42,9.74s14.51,6,21.84,8.9q21.85,8.52,44.35,16l2.81.93,2.78.84,5.59,1.81,5.62,1.78,5.61,1.75,11.27,3.5,5.65,1.65,5.65,1.62q22.67,6.53,45.57,12.08t46.13,10.3q23.1,4.75,46.35,8.59c15.6,2.62,31,4.86,46.6,6.92,7.77,1.07,15.6,2,23.37,2.91s15.61,1.71,23.44,2.43c3.9.38,7.81.78,11.71,1.09l11.76,1c7.81.56,15.61,1.22,23.51,1.63l5.86.37,2.94.19h2.93l11.77.59,5.9.25,5.9.22c3.9.16,7.83.31,11.76.4l11.77.29,11.8.18H-8.91c15.61,0,31.43-.34,47.13-1l5.87-.22h6l11.77-.6,5.9-.31,5.87-.37,11.76-.72,11.77-.87c3.9-.29,7.83-.57,11.73-.94,7.84-.69,15.61-1.34,23.51-2.15q46.82-4.69,93.63-12.08v.34c-30.93,5.84-62.08,10.52-93.38,14.23-7.81,1-15.61,1.72-23.47,2.56-3.94.41-7.84.75-11.77,1.09l-11.77,1.07c-15.6,1.24-31.43,2.34-47.16,3.12l-5.9.28c-2,0-3.93.22-5.93.25l-11.8.4c-3.93,0-7.86.22-11.82.32l-11.8.21H-44.18L-56-449.78c-3.93,0-7.86-.19-11.83-.32l-5.9-.18a46.43,46.43,0,0,1-5.89-.25l-11.83-.53-2.94-.16h-3l-5.9-.34c-7.87-.44-15.61-1.07-23.6-1.6l-11.76-1c-3.94-.29-7.87-.69-11.77-1.07s-7.87-.71-11.77-1.15l-11.76-1.28c-7.84-.94-15.61-1.84-23.47-2.9l-5.87-.78-5.84-.85L-215-463l-5.83-.87-11.68-1.84-11.67-1.94q-23.4-4.4-46.6-9.3t-45.88-10.71q-22.9-5.83-45.57-12.67l-5.65-1.71-5.61-1.75-11.27-3.62-5.62-1.84-5.59-1.88-5.58-1.93-2.81-.94-2.81-1-5.59-2-5.52-2.06q-2.81-1-5.56-2.06l-5.52-2.1-5.5-2.12-5.49-2.15c-3.68-1.47-7.33-2.94-10.95-4.46-14.52-6.25-28.94-12.49-42.86-19.85Z" transform="translate(518.84 628.13)"/></g></g></svg>