<svg id="Group_117" data-name="Group 117" xmlns="http://www.w3.org/2000/svg" width="50.658" height="50.658" viewBox="0 0 50.658 50.658">
  <path id="Path_228" data-name="Path 228" d="M672.785,6180.594a25.329,25.329,0,1,0,7.419,17.91A25.163,25.163,0,0,0,672.785,6180.594Zm-17.91,42.918a25.008,25.008,0,1,1,25.007-25.008A25.036,25.036,0,0,1,654.875,6223.512Z" transform="translate(-629.546 -6173.175)" fill="#0e0f0e"/>
  <path id="Path_229" data-name="Path 229" d="M679.16,6203.572a3.647,3.647,0,0,0,3.823-.128v-.024a8.946,8.946,0,0,0-4.015,0C678.98,6203.5,679.1,6203.525,679.16,6203.572Z" transform="translate(-655.667 -6189.04)" fill="#0e0f0e"/>
  <path id="Path_230" data-name="Path 230" d="M683.641,6205.65c-.011.646-.024,1.337,0,1.962a8.493,8.493,0,0,0,1.972-.237,10.113,10.113,0,0,0-1.232-1.83C684.142,6205.579,683.88,6205.615,683.641,6205.65Z" transform="translate(-658.129 -6190.283)" fill="#0e0f0e"/>
  <path id="Path_231" data-name="Path 231" d="M686.037,6205.031a19.783,19.783,0,0,1,1.231,1.845,7.781,7.781,0,0,0,1.458-.494l.023-.037a8.437,8.437,0,0,0-2.163-1.571C686.408,6204.869,686.2,6204.939,686.037,6205.031Z" transform="translate(-659.403 -6189.876)" fill="#0e0f0e"/>
  <path id="Path_232" data-name="Path 232" d="M675.071,6204.137c-.059-.059-.143-.105-.215-.166s-.155.037-.251.014v-.024c-.048,0-.071.035-.107.071a8.6,8.6,0,0,0-2.474,1.244v.023a3.935,3.935,0,0,0,.908.491A12.118,12.118,0,0,1,675.071,6204.137Z" transform="translate(-651.997 -6189.438)" fill="#0e0f0e"/>
  <path id="Path_233" data-name="Path 233" d="M690.2,6205.745l.824-.458.024-.047a8.52,8.52,0,0,0-2.808-1.314c-.083.058-.2.117-.227.2a10.424,10.424,0,0,1,2.126,1.62Z" transform="translate(-660.449 -6189.428)" fill="#0e0f0e"/>
  <path id="Path_234" data-name="Path 234" d="M679.831,6205.523a10.452,10.452,0,0,0-1.243,1.84,6.461,6.461,0,0,0,1.05.188,4.357,4.357,0,0,0,.969.036c0-.646.024-1.352-.012-1.96Z" transform="translate(-655.466 -6190.272)" fill="#0e0f0e"/>
  <path id="Path_235" data-name="Path 235" d="M679.186,6239.466c-.036.035-.119.046-.1.1a9.1,9.1,0,0,0,3.943.022c.024-.022.119,0,.084-.07A3.738,3.738,0,0,0,679.186,6239.466Z" transform="translate(-655.729 -6207.932)" fill="#0e0f0e"/>
  <path id="Path_236" data-name="Path 236" d="M672.126,6236.591v.037a8.478,8.478,0,0,0,2.8,1.314.923.923,0,0,0,.24-.188,12.148,12.148,0,0,1-2.151-1.656A6.8,6.8,0,0,0,672.126,6236.591Z" transform="translate(-652.051 -6206.432)" fill="#0e0f0e"/>
  <path id="Path_237" data-name="Path 237" d="M688.165,6237.706l-.024.035a1.309,1.309,0,0,0,.264.188l.562-.176a8.069,8.069,0,0,0,2.234-1.175,4.707,4.707,0,0,0-.92-.5A10.663,10.663,0,0,1,688.165,6237.706Z" transform="translate(-660.515 -6206.419)" fill="#0e0f0e"/>
  <path id="Path_238" data-name="Path 238" d="M695.838,6218.059a7.318,7.318,0,0,0-.132,2.407,1.409,1.409,0,0,0,.466,1.1,1.878,1.878,0,0,0,1.564.093.916.916,0,0,0,.55-.682,14.456,14.456,0,0,0,.072-2.147,2.071,2.071,0,0,0-.2-.939,1.409,1.409,0,0,0-1.206-.446A1.165,1.165,0,0,0,695.838,6218.059Z" transform="translate(-664.495 -6196.574)" fill="#0e0f0e"/>
  <path id="Path_239" data-name="Path 239" d="M677.387,6205.036c-.179-.084-.358-.142-.538-.213a9.4,9.4,0,0,0-2.115,1.537l-.023.071a9.529,9.529,0,0,0,1.421.48l.048-.01a15.114,15.114,0,0,1,1.17-1.775Z" transform="translate(-653.417 -6189.902)" fill="#0e0f0e"/>
  <path id="Path_240" data-name="Path 240" d="M689.585,6246.6a.292.292,0,0,0-.33.332v1.817a.33.33,0,1,0,.661,0v-1.817A.291.291,0,0,0,689.585,6246.6Z" transform="translate(-661.104 -6211.983)" fill="#0e0f0e"/>
  <path id="Path_241" data-name="Path 241" d="M686.242,6236.545l.513.223c.287-.139.562-.317.837-.481a7.513,7.513,0,0,0,1.326-1.127,6.689,6.689,0,0,0-1.459-.5l-.035.024a14.147,14.147,0,0,1-1.148,1.785Z" transform="translate(-659.511 -6205.668)" fill="#0e0f0e"/>
  <path id="Path_242" data-name="Path 242" d="M672.705,6246.6a.291.291,0,0,0-.33.332v1.817a.33.33,0,1,0,.66,0v-1.817A.291.291,0,0,0,672.705,6246.6Z" transform="translate(-652.182 -6211.983)" fill="#0e0f0e"/>
  <path id="Path_243" data-name="Path 243" d="M667.839,6246.6a.292.292,0,0,0-.331.332v1.817a.33.33,0,1,0,.661,0v-1.817A.291.291,0,0,0,667.839,6246.6Z" transform="translate(-649.61 -6211.983)" fill="#0e0f0e"/>
  <path id="Path_244" data-name="Path 244" d="M662.95,6246.613a.288.288,0,0,0-.33.327v.6a.33.33,0,1,0,.66,0v-.6A.288.288,0,0,0,662.95,6246.613Z" transform="translate(-647.026 -6211.989)" fill="#0e0f0e"/>
  <path id="Path_245" data-name="Path 245" d="M683.936,6235.979a3.443,3.443,0,0,0,.6.069,12.021,12.021,0,0,0,1.207-1.819l-.013-.035a9.337,9.337,0,0,0-2-.235c-.036.693-.024,1.3,0,2Z" transform="translate(-658.172 -6205.3)" fill="#0e0f0e"/>
  <path id="Path_246" data-name="Path 246" d="M680.748,6235.944l-.012-1.986a10.4,10.4,0,0,0-1.935.211l-.06.047a10.514,10.514,0,0,0,1.242,1.846C680.221,6236,680.5,6236,680.748,6235.944Z" transform="translate(-655.546 -6205.3)" fill="#0e0f0e"/>
  <path id="Path_247" data-name="Path 247" d="M663.956,6224.813a17.228,17.228,0,1,0-17.228-17.228A17.227,17.227,0,0,0,663.956,6224.813Zm-8.438-5.852c0,.567-.313.875-.973.875-.626,0-.95-.308-.95-.846v-.086h.6v.121a.292.292,0,0,0,.33.331c.226,0,.353-.091.353-.413v-.61h-.011a.607.607,0,0,1-.579.293c-.469,0-.707-.274-.707-.769v-.615c0-.539.342-.846.967-.846s.967.307.967.846Zm2.305.029c0,.538-.342.846-.967.846s-.967-.308-.967-.846v-1.749c0-.539.342-.846.967-.846s.967.307.967.846Zm2.294,0c0,.538-.342.846-.967.846s-.967-.308-.967-.846v-1.749c0-.539.342-.846.967-.846s.967.307.967.846Zm1.934.807h-.637v-2.566h-.492v-.375c.492,0,.6-.2.7-.423h.429Zm1.385,0h-.614v-.509h.614Zm0-1.831h-.614v-.509h.614Zm1.1,1.35h1.2v.48H663.9v-.413c0-.375.162-.659.637-1.072s.626-.692.626-1.052c0-.3-.128-.384-.331-.384a.291.291,0,0,0-.33.332v.36h-.6v-.326c0-.539.324-.846.95-.846s.95.307.95.846c0,.447-.2.807-.788,1.331-.376.336-.48.5-.48.673A.31.31,0,0,0,664.537,6219.317Zm3.539-.327c0,.538-.341.846-.967.846s-.967-.308-.967-.846v-1.749c0-.539.342-.846.967-.846s.967.307.967.846Zm1.935.807h-.637v-2.566h-.493v-.375c.493,0,.6-.2.7-.423h.429Zm-7.306-5.431a9.868,9.868,0,0,1-3.011-.928c.024-.013,0-.034-.01-.034a.011.011,0,0,0-.012.01,9.369,9.369,0,0,1-3.6-3.2,1.359,1.359,0,0,1,.383,0,8.621,8.621,0,0,0,1.887,1.984c.336-.154.658-.364.98-.552a10.114,10.114,0,0,1-1.05-1.445c.131.024.37-.093.43.107a9.4,9.4,0,0,0,.92,1.161l.048.024a15.313,15.313,0,0,1,1.577-.553l.036-.034-.3-.692a1.023,1.023,0,0,1,.334-.013l.323.624a13.805,13.805,0,0,1,2.15-.259c.072-.118.011-.224.036-.365h.31c.048.095,0,.247.036.353a15.357,15.357,0,0,1,2.2.282l.323-.634h.323a5.9,5.9,0,0,1-.286.7l.059.044a12.853,12.853,0,0,1,1.542.541,8.3,8.3,0,0,0,1-1.28h.371a9.71,9.71,0,0,1-1.04,1.422c.287.188.61.34.91.528.023.034.094.047.119.011a9.161,9.161,0,0,0,1.826-1.948,1.928,1.928,0,0,1,.383,0A9.409,9.409,0,0,1,662.7,6214.366Zm1.793-13.043c.537-.025,1.194-.025,1.732-.013.013.975.048,1.819.024,2.781-.573.023-1.182.013-1.708.013a2.927,2.927,0,0,0-2.187-1.164c-.394-.01-.921-.128-1.148.259a.327.327,0,0,0,.132.316l.214.106,2.892.834a2.829,2.829,0,0,1,2.054,2.146,2.412,2.412,0,0,1-1.243,2.466,5.014,5.014,0,0,1-4.074,0c-.2-.1-.406-.223-.61-.316l-.024.564-1.791.012c-.037-.94-.025-2.032,0-2.982l1.612-.012c.1.117.156.257.251.375a3.174,3.174,0,0,0,3.155.773c.083-.045.191-.105.191-.209.023-.129-.12-.235-.227-.283-1.077-.363-2.188-.635-3.251-1.01a2.623,2.623,0,0,1-1.745-1.76,2.367,2.367,0,0,1,.812-2.465,4.739,4.739,0,0,1,4.349-.247l.549.293A2.208,2.208,0,0,0,664.5,6201.323Zm8.155,17.667c0,.538-.324.846-.95.846s-.95-.308-.95-.846v-.278h.6v.313a.33.33,0,0,0,.661,0v-.74a.33.33,0,1,0-.661,0v.1h-.6l.116-1.951h1.68v.48h-1.112l-.052.8h.011a.637.637,0,0,1,.551-.245c.469,0,.706.274.706.769Zm2.587-15.672a5.42,5.42,0,0,1-.407,4.685,3.547,3.547,0,0,1-1.433,1.08l-.051.021a2.218,2.218,0,0,1-.523.177,5.433,5.433,0,0,1-5.018-.951,4.679,4.679,0,0,1-.907-4.379,3.208,3.208,0,0,1,1.625-2.231,5.763,5.763,0,0,1,5.52.165A3.151,3.151,0,0,1,675.239,6203.318Zm-12.032-7.209a2.818,2.818,0,0,1,.442-.014,5.51,5.51,0,0,1,1.064.014l.024.022.012-.022a9.458,9.458,0,0,1,7.1,4.156c-.12.059-.24.01-.383.01a8.733,8.733,0,0,0-1.887-1.96l-.121.047-.836.48v.06a5.157,5.157,0,0,1,.526.633,4.769,4.769,0,0,1,.514.739,1.1,1.1,0,0,1-.358.024,10.948,10.948,0,0,0-1.029-1.29,13.126,13.126,0,0,1-1.588.563l-.025.024.3.679a.752.752,0,0,1-.335.024l-.323-.61-.058-.013a11.459,11.459,0,0,1-2.093.272c-.047.1,0,.235-.035.351h-.322c-.035-.105.036-.281-.059-.365a11.628,11.628,0,0,1-2.164-.258c-.12.2-.2.423-.31.623a1.1,1.1,0,0,1-.346,0l.3-.681-.047-.047c-.526-.142-1.029-.34-1.542-.528a9.043,9.043,0,0,0-1,1.256.716.716,0,0,1-.359,0,10.34,10.34,0,0,1,1.028-1.408c-.3-.187-.645-.354-.956-.553a6.4,6.4,0,0,0-.932.787,11.006,11.006,0,0,0-.967,1.162,1.36,1.36,0,0,1-.383.012A9.365,9.365,0,0,1,663.207,6196.109Zm-10.215,11.284,1.183-.024.011-.165v-3.991c-.395-.037-.776-.024-1.183-.037-.011-.635-.011-1.362,0-1.984l.742-.013,4.5.013c.037.61.025,1.327.013,2l-1.183.011-.024.034-.011,4.122c.382.047.824.013,1.218.037v1.937h-5.269C652.967,6208.684,652.967,6208.049,652.992,6207.393Z" transform="translate(-638.627 -6182.256)" fill="#0e0f0e"/>
  <path id="Path_248" data-name="Path 248" d="M677.5,6236.534a18.434,18.434,0,0,1-1.206-1.866l-.049-.013a7.9,7.9,0,0,0-1.457.517v.035a8.05,8.05,0,0,0,2.175,1.574C677.128,6236.686,677.332,6236.628,677.5,6236.534Z" transform="translate(-653.457 -6205.668)" fill="#0e0f0e"/>
  <path id="Path_249" data-name="Path 249" d="M649.407,6194.61a1.4,1.4,0,0,0,1.977-1.956l-.46-.465-.627.62.495.5a.483.483,0,0,1-.687.68l-1.87-1.89a.483.483,0,1,1,.687-.68l.371.375.627-.62-.336-.34a1.4,1.4,0,0,0-1.976,1.956Z" transform="translate(-638.883 -6182.295)" fill="#0e0f0e"/>
  <path id="Path_250" data-name="Path 250" d="M659.681,6187.4l-.371-.6-1.368.849-.76-1.225,1.088-.675-.371-.6-1.088.675-.723-1.165,1.369-.85-.371-.6-2.161,1.341,2.6,4.183Z" transform="translate(-642.96 -6178.479)" fill="#0e0f0e"/>
  <path id="Path_251" data-name="Path 251" d="M667.092,6184.491l-.641-1.9.305-.1c.4-.136.632-.035.779.4l.247.733a1.293,1.293,0,0,0,.274.546l.9-.3a1.227,1.227,0,0,1-.288-.533l-.243-.72c-.164-.486-.426-.784-.919-.788l0-.013a.944.944,0,0,0,.261-1.135l-.124-.366c-.243-.719-.756-.939-1.671-.63l-1.333.45,1.575,4.663Zm-.924-4.142c.313-.105.5,0,.612.328l.156.46c.126.374-.034.561-.364.672l-.345.116-.484-1.433Z" transform="translate(-648.091 -6176.539)" fill="#0e0f0e"/>
  <path id="Path_252" data-name="Path 252" d="M676.344,6178.083l.414,4.2.928-.092-.414-4.2.97-.1-.069-.7-2.868.283.069.7Z" transform="translate(-653.73 -6175.3)" fill="#0e0f0e"/>
  <rect id="Rectangle_26" data-name="Rectangle 26" width="4.923" height="0.933" transform="translate(26.446 6.874) rotate(-85.162)" fill="#0e0f0e"/>
  <path id="Path_253" data-name="Path 253" d="M692.809,6181.425l1.161.318.186-.678-1.161-.318.393-1.431,1.48.406.186-.679-2.379-.652-1.3,4.748.9.246Z" transform="translate(-662.223 -6175.932)" fill="#0e0f0e"/>
  <rect id="Rectangle_27" data-name="Rectangle 27" width="4.923" height="0.933" transform="matrix(0.436, -0.9, 0.9, 0.436, 32.962, 8.485)" fill="#0e0f0e"/>
  <path id="Path_254" data-name="Path 254" d="M706.58,6190.947l.419-.564-1.293-.961.86-1.157,1.028.763.419-.565-1.028-.763.818-1.1,1.293.96.419-.564-2.042-1.516-2.936,3.952Z" transform="translate(-669.182 -6179.678)" fill="#0e0f0e"/>
  <path id="Path_255" data-name="Path 255" d="M715.988,6193.686l-.954-1.125-3.755,3.184.954,1.125c.6.712,1.227.783,1.827.273l1.9-1.61C716.559,6195.024,716.591,6194.4,715.988,6193.686Zm-.605,1.114-1.953,1.655a.416.416,0,0,1-.672-.053l-.34-.4,2.683-2.274.34.4A.416.416,0,0,1,715.382,6194.8Z" transform="translate(-672.743 -6183.421)" fill="#0e0f0e"/>
  <path id="Path_256" data-name="Path 256" d="M651.315,6253.556a1.25,1.25,0,0,0-1.942-.257l-2.04,1.759a1.473,1.473,0,0,0,1.91,2.215l.521-.45-.606-.7-.561.483a.509.509,0,0,1-.664-.771l2.118-1.826a.508.508,0,1,1,.664.77l-.42.362.606.7.381-.329A1.249,1.249,0,0,0,651.315,6253.556Z" transform="translate(-638.69 -6215.334)" fill="#0e0f0e"/>
  <path id="Path_257" data-name="Path 257" d="M659.445,6260.272a1.27,1.27,0,0,0-1.961.261l-1.491,2.243a1.5,1.5,0,0,0,2.48,1.648l1.491-2.243A1.27,1.27,0,0,0,659.445,6260.272Zm-.269,1.323-1.548,2.329a.508.508,0,1,1-.847-.562l1.548-2.33a.508.508,0,1,1,.847.563Z" transform="translate(-643.393 -6219.029)" fill="#0e0f0e"/>
  <path id="Path_258" data-name="Path 258" d="M668.954,6268.341l-.017,0,.3-3.734-1.315-.365-1.385,4.991.825.229.979-3.528.017,0-.292,3.72.894.249,1.629-3.4.017,0-.993,3.578.894.248,1.385-4.99-1.315-.365Z" transform="translate(-649.095 -6221.303)" fill="#0e0f0e"/>
  <path id="Path_259" data-name="Path 259" d="M683.263,6266.666l-1.444.054.193,5.176.98-.037-.072-1.944.463-.018c.98-.037,1.445-.505,1.414-1.333l-.025-.673C684.742,6267.063,684.243,6266.629,683.263,6266.666Zm.092,2.493-.463.017-.065-1.752.463-.017c.312-.012.486.1.5.47l.029.777C683.833,6269.021,683.668,6269.146,683.356,6269.158Z" transform="translate(-657.174 -6222.586)" fill="#0e0f0e"/>
  <path id="Path_260" data-name="Path 260" d="M692.576,6265.029l.6,5.24.859-.271-.121-.947,1.148-.362.444.846.944-.3-2.511-4.64Zm1.251,3.314-.346-2.638.017-.006,1.23,2.359Z" transform="translate(-662.859 -6221.494)" fill="#0e0f0e"/>
  <path id="Path_261" data-name="Path 261" d="M702.366,6259.241l1.737,2.568-.015.01-2.557-2.014-1.019.689,2.9,4.29.731-.494-2.1-3.107.015-.01,3.1,2.433.835-.564-2.9-4.291Z" transform="translate(-667.053 -6218.404)" fill="#0e0f0e"/>
  <path id="Path_262" data-name="Path 262" d="M710.625,6250.972l-.6.72,1.342,2.078-.011.013-2.289-.939-.656.789,3.456,1.259,1.32,1.1.627-.754-1.32-1.1Z" transform="translate(-671.229 -6214.292)" fill="#0e0f0e"/>
</svg>
